<svg width="21" height="20" viewBox="0 0 21 20" fill="none" xmlns="http://www.w3.org/2000/svg">
<path d="M20.5002 10.6252C20.5002 10.8739 20.4014 11.1123 20.2256 11.2881C20.0498 11.464 19.8113 11.5627 19.5627 11.5627H18.9377V12.1877C18.9377 12.4364 18.8389 12.6748 18.6631 12.8506C18.4873 13.0265 18.2488 13.1252 18.0002 13.1252C17.7515 13.1252 17.5131 13.0265 17.3373 12.8506C17.1615 12.6748 17.0627 12.4364 17.0627 12.1877V11.5627H16.4377C16.189 11.5627 15.9506 11.464 15.7748 11.2881C15.599 11.1123 15.5002 10.8739 15.5002 10.6252C15.5002 10.3766 15.599 10.1381 15.7748 9.96232C15.9506 9.7865 16.189 9.68773 16.4377 9.68773H17.0627V9.06273C17.0627 8.81409 17.1615 8.57563 17.3373 8.39982C17.5131 8.224 17.7515 8.12523 18.0002 8.12523C18.2488 8.12523 18.4873 8.224 18.6631 8.39982C18.8389 8.57563 18.9377 8.81409 18.9377 9.06273V9.68773H19.5627C19.8113 9.68773 20.0498 9.7865 20.2256 9.96232C20.4014 10.1381 20.5002 10.3766 20.5002 10.6252ZM16.2181 15.0221C16.3781 15.2125 16.4559 15.4587 16.4343 15.7064C16.4128 15.9542 16.2937 16.1832 16.1033 16.3432C15.9129 16.5032 15.6667 16.5809 15.419 16.5594C15.1712 16.5378 14.9422 16.4188 14.7822 16.2284C13.7127 14.9549 11.8283 13.4377 8.93768 13.4377C6.68065 13.4377 4.60487 14.4284 3.09315 16.2284C2.93319 16.4188 2.70414 16.5378 2.45639 16.5594C2.20863 16.5809 1.96247 16.5032 1.77205 16.3432C1.58164 16.1832 1.46256 15.9542 1.44103 15.7064C1.41949 15.4587 1.49725 15.2125 1.65721 15.0221C2.67575 13.792 3.98243 12.8326 5.46112 12.2291C4.54161 11.5062 3.87033 10.5147 3.54069 9.39241C3.21105 8.27016 3.23945 7.07307 3.62193 5.96772C4.00441 4.86237 4.72196 3.90374 5.67471 3.22525C6.62746 2.54675 7.76802 2.18213 8.93768 2.18213C10.1073 2.18213 11.2479 2.54675 12.2007 3.22525C13.1534 3.90374 13.8709 4.86237 14.2534 5.96772C14.6359 7.07307 14.6643 8.27016 14.3347 9.39241C14.005 10.5147 13.3337 11.5062 12.4142 12.2291C13.8931 12.8323 15.1998 13.7918 16.2181 15.0221ZM8.93768 11.5627C9.67936 11.5627 10.4044 11.3428 11.0211 10.9307C11.6378 10.5187 12.1184 9.93301 12.4022 9.24779C12.6861 8.56257 12.7603 7.80857 12.6156 7.08114C12.4709 6.35371 12.1138 5.68553 11.5893 5.16108C11.0649 4.63663 10.3967 4.27948 9.66927 4.13478C8.94184 3.99009 8.18784 4.06435 7.50262 4.34818C6.81739 4.63201 6.23172 5.11266 5.81967 5.72934C5.40761 6.34602 5.18768 7.07105 5.18768 7.81273C5.18871 8.80697 5.58413 9.7602 6.28717 10.4632C6.99021 11.1663 7.94344 11.5617 8.93768 11.5627Z" fill="#494D5F"/>
</svg>
