<svg width="21" height="20" viewBox="0 0 21 20" fill="none" xmlns="http://www.w3.org/2000/svg">
<path d="M12.7867 1.65777C12.629 1.58068 12.4529 1.5494 12.2783 1.5675C12.1037 1.58559 11.9377 1.65233 11.7992 1.76011L6.42812 5.93746H3C2.5856 5.93746 2.18817 6.10208 1.89515 6.3951C1.60212 6.68813 1.4375 7.08555 1.4375 7.49996V12.5C1.4375 12.9144 1.60212 13.3118 1.89515 13.6048C2.18817 13.8978 2.5856 14.0625 3 14.0625H6.42812L11.7992 18.2398C11.9377 18.3476 12.1037 18.4143 12.2783 18.4324C12.4529 18.4505 12.6291 18.4193 12.7868 18.3422C12.9445 18.2651 13.0773 18.1453 13.1703 17.9964C13.2632 17.8475 13.3125 17.6755 13.3125 17.5V2.49996C13.3125 2.32443 13.2632 2.15244 13.1702 2.00355C13.0773 1.85466 12.9444 1.73485 12.7867 1.65777ZM11.4375 15.5835L7.32578 12.3851C7.16118 12.257 6.95857 12.1875 6.75 12.1875H3.3125V7.81246H6.75C6.95857 7.81245 7.16118 7.7429 7.32578 7.6148L11.4375 4.41714V15.5835ZM19.9133 11.2125C20.0005 11.2997 20.0697 11.4032 20.1169 11.5171C20.1641 11.6311 20.1883 11.7532 20.1883 11.8765C20.1883 11.9998 20.1641 12.122 20.1169 12.2359C20.0697 12.3498 20.0005 12.4534 19.9133 12.5406C19.8261 12.6278 19.7225 12.697 19.6086 12.7442C19.4947 12.7914 19.3725 12.8156 19.2492 12.8156C19.1259 12.8156 19.0038 12.7914 18.8898 12.7442C18.7759 12.697 18.6724 12.6278 18.5852 12.5406L17.375 11.3281L16.1633 12.5406C15.9872 12.7167 15.7483 12.8156 15.4992 12.8156C15.2501 12.8156 15.0113 12.7167 14.8352 12.5406C14.659 12.3645 14.5601 12.1256 14.5601 11.8765C14.5601 11.6274 14.659 11.3886 14.8352 11.2125L16.0469 9.99996L14.8344 8.78824C14.6583 8.61212 14.5593 8.37325 14.5593 8.12417C14.5593 7.8751 14.6583 7.63623 14.8344 7.46011C15.0105 7.28399 15.2494 7.18505 15.4984 7.18505C15.7475 7.18505 15.9864 7.28399 16.1625 7.46011L17.375 8.67183L18.5867 7.46011C18.7628 7.28399 19.0017 7.18505 19.2508 7.18505C19.4999 7.18505 19.7387 7.28399 19.9148 7.46011C20.091 7.63623 20.1899 7.8751 20.1899 8.12417C20.1899 8.37325 20.091 8.61212 19.9148 8.78824L18.7031 9.99996L19.9133 11.2125Z" fill="#494D5F"/>
</svg>
