<svg width="21" height="20" viewBox="0 0 21 20" fill="none" xmlns="http://www.w3.org/2000/svg">
<path d="M17.3747 2.1875H12.3747C12.2311 2.18749 12.0894 2.22045 11.9606 2.28384C11.8318 2.34723 11.7193 2.43936 11.6317 2.55313L6.8481 8.77187L6.34654 8.27031C6.20144 8.12515 6.02916 8.01 5.83955 7.93144C5.64994 7.85288 5.44671 7.81244 5.24146 7.81244C5.03622 7.81244 4.83299 7.85288 4.64337 7.93144C4.45376 8.01 4.28148 8.12515 4.13638 8.27031L2.83248 9.57422C2.68732 9.71932 2.57217 9.8916 2.49361 10.0812C2.41505 10.2708 2.37461 10.4741 2.37461 10.6793C2.37461 10.8845 2.41505 11.0878 2.49361 11.2774C2.57217 11.467 2.68732 11.6393 2.83248 11.7844L4.01529 12.9688L2.36373 14.6227C2.07081 14.9157 1.90625 15.313 1.90625 15.7273C1.90625 16.1417 2.07081 16.539 2.36373 16.832L3.66764 18.1359C3.96065 18.4289 4.358 18.5934 4.77232 18.5934C5.18664 18.5934 5.584 18.4289 5.87701 18.1359L7.53092 16.4844L8.71607 17.6688C8.86117 17.8139 9.03345 17.9291 9.22306 18.0076C9.41267 18.0862 9.61591 18.1266 9.82115 18.1266C10.0264 18.1266 10.2296 18.0862 10.4192 18.0076C10.6089 17.9291 10.7811 17.8139 10.9262 17.6688L12.2301 16.3648C12.3754 16.2197 12.4907 16.0474 12.5693 15.8577C12.6479 15.668 12.6884 15.4647 12.6884 15.2594C12.6884 15.054 12.6479 14.8507 12.5693 14.661C12.4907 14.4713 12.3754 14.299 12.2301 14.1539L11.7286 13.6531L17.9473 8.86953C18.0612 8.78171 18.1533 8.66889 18.2165 8.53979C18.2798 8.41069 18.3125 8.26877 18.3122 8.125V3.125C18.3122 2.87636 18.2134 2.6379 18.0376 2.46209C17.8618 2.28627 17.6233 2.1875 17.3747 2.1875ZM4.77232 16.5891L3.91295 15.7297L5.34342 14.2969L6.20279 15.1562L4.77232 16.5891ZM9.81998 16.1203L4.37857 10.6797L5.24185 9.82031L10.6833 15.2617L9.81998 16.1203ZM16.4372 7.66328L10.3911 12.3141L9.95279 11.875L13.6645 8.16406C13.8406 7.98794 13.9396 7.74907 13.9396 7.5C13.9396 7.25093 13.8406 7.01206 13.6645 6.83594C13.4884 6.65982 13.2495 6.56087 13.0004 6.56087C12.7514 6.56087 12.5125 6.65982 12.3364 6.83594L8.62467 10.5469L8.18482 10.107L12.8364 4.0625H16.4372V7.66328Z" fill="#494D5F"/>
</svg>
