<svg width="21" height="20" viewBox="0 0 21 20" fill="none" xmlns="http://www.w3.org/2000/svg">
<path d="M17.4434 16.2444L4.94335 2.49438C4.86102 2.40158 4.76109 2.32604 4.64935 2.27214C4.53761 2.21824 4.41629 2.18705 4.2924 2.18039C4.16852 2.17372 4.04455 2.19171 3.92767 2.23331C3.8108 2.27491 3.70334 2.3393 3.61153 2.42273C3.51972 2.50617 3.44538 2.607 3.39282 2.71938C3.34027 2.83176 3.31054 2.95345 3.30536 3.0774C3.30018 3.20135 3.31965 3.3251 3.36265 3.44147C3.40565 3.55784 3.47132 3.66452 3.55585 3.75532L4.7121 5.02798C4.20152 5.98025 3.93522 7.04434 3.9371 8.12485C3.9371 10.1233 3.57851 11.7967 2.90038 12.9631C2.76225 13.2012 2.68917 13.4714 2.68848 13.7466C2.6878 14.0218 2.75953 14.2924 2.89648 14.5311C3.03207 14.77 3.22897 14.9683 3.46684 15.1057C3.70471 15.243 3.97493 15.3144 4.2496 15.3124H7.07695C7.15645 16.1651 7.55141 16.9574 8.18449 17.5342C8.81757 18.111 9.64316 18.4307 10.4996 18.4307C11.356 18.4307 12.1816 18.111 12.8147 17.5342C13.4478 16.9574 13.8428 16.1651 13.9223 15.3124H14.0621L16.0559 17.5053C16.2239 17.6859 16.4564 17.7929 16.7029 17.8032C16.9494 17.8135 17.19 17.7262 17.3726 17.5603C17.5551 17.3944 17.6649 17.1632 17.6782 16.9169C17.6914 16.6706 17.6071 16.4289 17.4434 16.2444ZM5.8121 8.12485C5.81148 7.58455 5.90452 7.04822 6.0871 6.5397L12.3574 13.4374H4.77148C5.4621 12.0311 5.8121 10.2452 5.8121 8.12485ZM10.4996 16.5624C10.1394 16.5624 9.79023 16.438 9.51119 16.2103C9.23216 15.9825 9.04039 15.6653 8.96835 15.3124H12.0309C11.9588 15.6653 11.767 15.9825 11.488 16.2103C11.209 16.438 10.8598 16.5624 10.4996 16.5624ZM7.44413 3.30845C7.39612 3.19508 7.3709 3.07336 7.36992 2.95025C7.36895 2.82714 7.39223 2.70504 7.43844 2.59092C7.48465 2.47681 7.55289 2.37291 7.63925 2.28517C7.72562 2.19743 7.82842 2.12755 7.94179 2.07954C8.93971 1.65718 10.0267 1.48852 11.1057 1.5886C12.1847 1.68868 13.2221 2.05439 14.1253 2.65308C15.0285 3.25177 15.7695 4.06481 16.2819 5.0196C16.7944 5.9744 17.0624 7.04123 17.0621 8.12485C17.0621 9.58423 17.248 10.8538 17.6144 11.8967C17.6555 12.0129 17.6732 12.1359 17.6667 12.2589C17.6602 12.382 17.6295 12.5025 17.5764 12.6136C17.5233 12.7247 17.4488 12.8243 17.3572 12.9067C17.2656 12.9891 17.1587 13.0526 17.0426 13.0936C16.9264 13.1346 16.8033 13.1524 16.6803 13.1459C16.5573 13.1393 16.4368 13.1086 16.3257 13.0555C16.2146 13.0024 16.115 12.928 16.0326 12.8364C15.9502 12.7448 15.8867 12.6379 15.8457 12.5217C15.4082 11.2749 15.1871 9.79673 15.1871 8.12485C15.1874 7.35084 14.996 6.58879 14.63 5.90676C14.2641 5.22473 13.7349 4.64393 13.0898 4.21623C12.4447 3.78853 11.7037 3.52723 10.933 3.45566C10.1623 3.3841 9.38587 3.50449 8.67304 3.8061C8.55967 3.85412 8.43796 3.87934 8.31484 3.88031C8.19173 3.88129 8.06963 3.85801 7.95552 3.81179C7.8414 3.76558 7.7375 3.69735 7.64976 3.61098C7.56202 3.52462 7.49215 3.42181 7.44413 3.30845Z" fill="#494D5F"/>
</svg>
