<svg width="32" height="32" viewBox="0 0 32 32" fill="none" xmlns="http://www.w3.org/2000/svg">
<path d="M26.7073 12.7075L16.7073 22.7075C16.6144 22.8005 16.5041 22.8742 16.3828 22.9246C16.2614 22.9749 16.1312 23.0008 15.9998 23.0008C15.8684 23.0008 15.7383 22.9749 15.6169 22.9246C15.4955 22.8742 15.3852 22.8005 15.2923 22.7075L5.29231 12.7075C5.1523 12.5676 5.05693 12.3894 5.01828 12.1953C4.97963 12.0012 4.99944 11.8 5.07519 11.6172C5.15094 11.4344 5.27923 11.2782 5.44383 11.1683C5.60842 11.0584 5.80192 10.9998 5.99981 11H25.9998C26.1977 10.9998 26.3912 11.0584 26.5558 11.1683C26.7204 11.2782 26.8487 11.4344 26.9244 11.6172C27.0002 11.8 27.02 12.0012 26.9813 12.1953C26.9427 12.3894 26.8473 12.5676 26.7073 12.7075Z" fill="#E5EAF5"/>
</svg>
