<svg width="32" height="32" viewBox="0 0 32 32" fill="none" xmlns="http://www.w3.org/2000/svg">
<path d="M27 9.5H23.5V6C23.5 5.33696 23.2366 4.70107 22.7678 4.23223C22.2989 3.76339 21.663 3.5 21 3.5H5C4.33696 3.5 3.70107 3.76339 3.23223 4.23223C2.76339 4.70107 2.5 5.33696 2.5 6V22C2.50013 22.2831 2.58036 22.5604 2.73142 22.7998C2.88248 23.0392 3.09821 23.231 3.35367 23.3529C3.60914 23.4749 3.8939 23.5221 4.17505 23.4891C4.45621 23.456 4.72227 23.3441 4.9425 23.1663L8.5 20.2913V23C8.5 23.663 8.76339 24.2989 9.23223 24.7678C9.70107 25.2366 10.337 25.5 11 25.5H22.5212L27.0575 29.1663C27.2777 29.3441 27.5438 29.456 27.8249 29.4891C28.1061 29.5221 28.3909 29.4749 28.6463 29.3529C28.9018 29.231 29.1175 29.0392 29.2686 28.7998C29.4196 28.5604 29.4999 28.2831 29.5 28V12C29.5 11.337 29.2366 10.7011 28.7678 10.2322C28.2989 9.76339 27.663 9.5 27 9.5ZM5.5 18.8587V6.5H20.5V16.5H8.9475C8.60269 16.499 8.26809 16.6169 8 16.8337L5.5 18.8587ZM26.5 24.8587L24 22.8337C23.7332 22.618 23.4006 22.5002 23.0575 22.5H11.5V19.5H21C21.663 19.5 22.2989 19.2366 22.7678 18.7678C23.2366 18.2989 23.5 17.663 23.5 17V12.5H26.5V24.8587Z" fill="rgba(229, 234, 245, 0.3)"/>
</svg>
