<svg width="32" height="32" viewBox="0 0 32 32" fill="none" xmlns="http://www.w3.org/2000/svg">
<path d="M30.5 13.0001H27.4013L21.9775 5.53006C21.7529 5.22158 21.4607 4.9686 21.1233 4.7905C20.7858 4.6124 20.4121 4.51391 20.0307 4.50257C19.6493 4.49123 19.2704 4.56734 18.9229 4.72507C18.5755 4.8828 18.2688 5.11797 18.0263 5.41256L16.4237 7.27006C16.4112 7.28381 16.3988 7.29881 16.3875 7.31381C16.3406 7.37131 16.2815 7.41766 16.2145 7.44948C16.1475 7.48131 16.0742 7.49783 16 7.49783C15.9258 7.49783 15.8525 7.48131 15.7855 7.44948C15.7185 7.41766 15.6594 7.37131 15.6125 7.31381C15.6013 7.29881 15.5887 7.28381 15.5763 7.27006L13.9738 5.41256C13.7312 5.11797 13.4245 4.8828 13.0771 4.72507C12.7296 4.56734 12.3507 4.49123 11.9693 4.50257C11.5879 4.51391 11.2142 4.6124 10.8767 4.7905C10.5393 4.9686 10.2471 5.22158 10.0225 5.53006L4.59875 13.0001H1.5C1.10218 13.0001 0.720644 13.1581 0.43934 13.4394C0.158035 13.7207 0 14.1022 0 14.5001C0 14.8979 0.158035 15.2794 0.43934 15.5607C0.720644 15.842 1.10218 16.0001 1.5 16.0001H30.5C30.8978 16.0001 31.2794 15.842 31.5607 15.5607C31.842 15.2794 32 14.8979 32 14.5001C32 14.1022 31.842 13.7207 31.5607 13.4394C31.2794 13.1581 30.8978 13.0001 30.5 13.0001ZM12.0775 7.80631L13.2887 9.21131C13.617 9.61338 14.0306 9.93742 14.4995 10.1599C14.9684 10.3825 15.481 10.4979 16 10.4979C16.519 10.4979 17.0316 10.3825 17.5005 10.1599C17.9694 9.93742 18.383 9.61338 18.7113 9.21131L19.9225 7.80631L23.6938 13.0001H8.30625L12.0775 7.80631ZM22.5 17.5001C21.3478 17.5015 20.2313 17.9001 19.3387 18.6287C18.4461 19.3574 17.8321 20.3714 17.6 21.5001H14.4C14.1621 20.3302 13.5135 19.284 12.5714 18.5507C11.6293 17.8175 10.456 17.4455 9.26347 17.502C8.07098 17.5585 6.93808 18.0399 6.06961 18.859C5.20113 19.6781 4.65439 20.781 4.52826 21.9681C4.40213 23.1553 4.70492 24.3484 5.38188 25.3317C6.05885 26.315 7.06531 27.0237 8.2193 27.3295C9.37328 27.6354 10.5986 27.5182 11.6737 26.9993C12.7489 26.4803 13.6028 25.5938 14.0813 24.5001H17.9188C18.2794 25.3263 18.8566 26.0397 19.5895 26.5647C20.3223 27.0897 21.1835 27.4068 22.0818 27.4824C22.9802 27.5581 23.8822 27.3894 24.6926 26.9943C25.5029 26.5992 26.1913 25.9924 26.685 25.2381C27.1787 24.4838 27.4592 23.61 27.4969 22.7093C27.5347 21.8086 27.3282 20.9144 26.8993 20.1215C26.4705 19.3285 25.8352 18.6663 25.0607 18.2048C24.2863 17.7433 23.4015 17.4998 22.5 17.5001ZM9.5 24.5001C9.10444 24.5001 8.71776 24.3828 8.38886 24.163C8.05996 23.9432 7.80362 23.6309 7.65224 23.2654C7.50087 22.9 7.46126 22.4978 7.53843 22.1099C7.6156 21.7219 7.80608 21.3655 8.08579 21.0858C8.36549 20.8061 8.72186 20.6157 9.10982 20.5385C9.49778 20.4613 9.89991 20.5009 10.2654 20.6523C10.6308 20.8037 10.9432 21.06 11.1629 21.3889C11.3827 21.7178 11.5 22.1045 11.5 22.5001C11.5 23.0305 11.2893 23.5392 10.9142 23.9143C10.5391 24.2893 10.0304 24.5001 9.5 24.5001ZM22.5 24.5001C22.1044 24.5001 21.7178 24.3828 21.3889 24.163C21.06 23.9432 20.8036 23.6309 20.6522 23.2654C20.5009 22.9 20.4613 22.4978 20.5384 22.1099C20.6156 21.7219 20.8061 21.3655 21.0858 21.0858C21.3655 20.8061 21.7219 20.6157 22.1098 20.5385C22.4978 20.4613 22.8999 20.5009 23.2654 20.6523C23.6308 20.8037 23.9432 21.06 24.1629 21.3889C24.3827 21.7178 24.5 22.1045 24.5 22.5001C24.5 23.0305 24.2893 23.5392 23.9142 23.9143C23.5391 24.2893 23.0304 24.5001 22.5 24.5001Z" fill="##494D5F"/>
</svg>
