<svg width="32" height="32" viewBox="0 0 32 32" fill="none" xmlns="http://www.w3.org/2000/svg">
<path d="M22.0002 14.5H19.0002C18.6024 14.5 18.2209 14.342 17.9396 14.0607C17.6583 13.7794 17.5002 13.3978 17.5002 13C17.5002 12.6022 17.6583 12.2206 17.9396 11.9393C18.2209 11.658 18.6024 11.5 19.0002 11.5H22.0002C22.3981 11.5 22.7796 11.658 23.0609 11.9393C23.3422 12.2206 23.5002 12.6022 23.5002 13C23.5002 13.3978 23.3422 13.7794 23.0609 14.0607C22.7796 14.342 22.3981 14.5 22.0002 14.5ZM13.0002 11.5H12.5002V11C12.5002 10.6022 12.3422 10.2206 12.0609 9.93934C11.7796 9.65804 11.3981 9.5 11.0002 9.5C10.6024 9.5 10.2209 9.65804 9.93958 9.93934C9.65827 10.2206 9.50024 10.6022 9.50024 11V11.5H9.00024C8.60241 11.5 8.22088 11.658 7.93958 11.9393C7.65827 12.2206 7.50024 12.6022 7.50024 13C7.50024 13.3978 7.65827 13.7794 7.93958 14.0607C8.22088 14.342 8.60241 14.5 9.00024 14.5H9.50024V15C9.50024 15.3978 9.65827 15.7794 9.93958 16.0607C10.2209 16.342 10.6024 16.5 11.0002 16.5C11.3981 16.5 11.7796 16.342 12.0609 16.0607C12.3422 15.7794 12.5002 15.3978 12.5002 15V14.5H13.0002C13.3981 14.5 13.7796 14.342 14.0609 14.0607C14.3422 13.7794 14.5002 13.3978 14.5002 13C14.5002 12.6022 14.3422 12.2206 14.0609 11.9393C13.7796 11.658 13.3981 11.5 13.0002 11.5ZM30.5952 25.3675C30.1765 25.9646 29.6322 26.4629 29.0005 26.8274C28.3688 27.1918 27.665 27.4137 26.9385 27.4774C26.2119 27.5412 25.4803 27.4452 24.7948 27.1962C24.1093 26.9473 23.4865 26.5513 22.9702 26.0362C22.9469 26.0142 22.9248 25.9908 22.904 25.9662L18.084 20.5H13.9165L9.10149 25.9662C9.08024 25.99 9.05774 26.0138 9.03524 26.0362C8.28311 26.7874 7.31116 27.2793 6.26047 27.4406C5.20978 27.6019 4.13504 27.4241 3.19226 26.933C2.24949 26.442 1.48773 25.6633 1.01759 24.7099C0.547442 23.7565 0.39337 22.6781 0.577738 21.6313C0.577031 21.6229 0.577031 21.6146 0.577738 21.6063L2.62524 11.0988C2.95105 9.25054 3.91743 7.57614 5.35476 6.36945C6.7921 5.16275 8.60853 4.50088 10.4852 4.5H21.5002C23.3711 4.50267 25.1821 5.16015 26.6189 6.35838C28.0557 7.55662 29.0278 9.22001 29.3665 11.06C29.3669 11.0679 29.3669 11.0758 29.3665 11.0837L31.4115 21.605C31.412 21.6133 31.412 21.6217 31.4115 21.63C31.5292 22.276 31.5177 22.939 31.3776 23.5805C31.2375 24.222 30.9716 24.8294 30.5952 25.3675ZM21.5002 17.5C22.8263 17.5 24.0981 16.9732 25.0358 16.0355C25.9735 15.0979 26.5002 13.8261 26.5002 12.5C26.5002 11.1739 25.9735 9.90215 25.0358 8.96447C24.0981 8.02678 22.8263 7.5 21.5002 7.5H10.4865C9.31283 7.50116 8.17717 7.91618 7.27932 8.67205C6.38146 9.42792 5.77894 10.4762 5.57774 11.6325C5.57715 11.6412 5.57715 11.65 5.57774 11.6587L3.53524 22.1588C3.44665 22.6797 3.56784 23.2145 3.87231 23.6464C4.17679 24.0783 4.63981 24.3721 5.16024 24.4638C5.47005 24.5178 5.78823 24.4983 6.08915 24.4069C6.39006 24.3155 6.66531 24.1547 6.89274 23.9375L12.1127 18.0088C12.2534 17.849 12.4265 17.721 12.6205 17.6333C12.8144 17.5455 13.0249 17.5001 13.2377 17.5H21.5002ZM28.4702 22.1637L27.5952 17.67C26.9071 18.4838 26.0629 19.1515 25.1124 19.6337C24.162 20.1158 23.1246 20.4028 22.0615 20.4775L25.1127 23.9425C25.4164 24.2338 25.8042 24.4219 26.2209 24.4801C26.6376 24.5382 27.0621 24.4635 27.4339 24.2664C27.8057 24.0694 28.1059 23.7601 28.2917 23.3826C28.4775 23.0051 28.5396 22.5786 28.469 22.1637H28.4702Z" fill="#A0D2EB"/>
</svg>
