<svg width="32" height="32" viewBox="0 0 32 32" fill="none" xmlns="http://www.w3.org/2000/svg">
<path d="M16.0002 9.50002C14.7146 9.50002 13.4579 9.88123 12.389 10.5955C11.32 11.3097 10.4869 12.3249 9.99495 13.5126C9.50298 14.7003 9.37426 16.0072 9.62506 17.2681C9.87586 18.529 10.4949 19.6872 11.404 20.5962C12.313 21.5053 13.4712 22.1243 14.7321 22.3751C15.993 22.6259 17.2999 22.4972 18.4876 22.0052C19.6753 21.5133 20.6905 20.6801 21.4047 19.6112C22.1189 18.5423 22.5002 17.2856 22.5002 16C22.4982 14.2767 21.8127 12.6246 20.5942 11.406C19.3756 10.1875 17.7235 9.502 16.0002 9.50002ZM16.0002 19.5C15.3079 19.5 14.6312 19.2947 14.0557 18.9102C13.4801 18.5256 13.0315 17.9789 12.7666 17.3394C12.5017 16.6999 12.4324 15.9961 12.5674 15.3172C12.7025 14.6383 13.0358 14.0146 13.5253 13.5251C14.0148 13.0357 14.6384 12.7023 15.3173 12.5673C15.9963 12.4322 16.7 12.5015 17.3396 12.7664C17.9791 13.0313 18.5257 13.4799 18.9103 14.0555C19.2949 14.6311 19.5002 15.3078 19.5002 16C19.5002 16.9283 19.1314 17.8185 18.475 18.4749C17.8187 19.1313 16.9284 19.5 16.0002 19.5ZM27.5002 16.0988V15.9013L29.2502 13.7125C29.3971 13.5291 29.4988 13.3138 29.5472 13.0838C29.5957 12.8539 29.5894 12.6158 29.5289 12.3888C29.2131 11.1976 28.7411 10.0536 28.1252 8.98627C28.0065 8.78274 27.8416 8.61003 27.6437 8.48211C27.4459 8.3542 27.2207 8.27469 26.9864 8.25002L24.2014 7.93752L24.0627 7.79877L23.7502 5.01252C23.7253 4.77844 23.6457 4.55351 23.5178 4.3559C23.3899 4.15829 23.2173 3.99355 23.0139 3.87502C21.9465 3.25713 20.802 2.78342 19.6102 2.46627C19.3829 2.40669 19.1448 2.40133 18.9151 2.45061C18.6854 2.4999 18.4705 2.60246 18.2877 2.75002L16.0989 4.50002H15.9014L13.7127 2.75002C13.5293 2.60312 13.3139 2.50136 13.084 2.45294C12.8541 2.40452 12.616 2.4108 12.3889 2.47127C11.1975 2.78903 10.0534 3.26315 8.98641 3.88127C8.78368 3.99931 8.61146 4.16326 8.4836 4.35995C8.35573 4.55664 8.27578 4.78057 8.25016 5.01377L7.93766 7.79877L7.79891 7.93752L5.01266 8.25002C4.77859 8.27488 4.55365 8.35448 4.35604 8.48238C4.15843 8.61029 3.9937 8.7829 3.87516 8.98627C3.25901 10.0539 2.78699 11.1984 2.47141 12.39C2.41115 12.6169 2.40498 12.8547 2.4534 13.0844C2.50181 13.3141 2.60346 13.5293 2.75016 13.7125L4.50016 15.9013V16.0988L2.75016 18.2875C2.60327 18.4709 2.50151 18.6863 2.45309 18.9162C2.40467 19.1461 2.41095 19.3842 2.47141 19.6113C2.78957 20.8028 3.26411 21.9469 3.88266 23.0138C4.00059 23.2163 4.16434 23.3885 4.3608 23.5163C4.55725 23.6442 4.78094 23.7242 5.01391 23.75L7.79891 24.06L7.93766 24.1988L8.25016 26.9875C8.27503 27.2216 8.35463 27.4465 8.48253 27.6441C8.61043 27.8417 8.78305 28.0065 8.98641 28.125C10.0538 28.7429 11.1983 29.2166 12.3902 29.5338C12.6174 29.5933 12.8555 29.5987 13.0852 29.5494C13.3149 29.5001 13.5298 29.3976 13.7127 29.25L15.9014 27.5H16.0989L18.2877 29.25C18.4711 29.3969 18.6864 29.4987 18.9163 29.5471C19.1463 29.5955 19.3844 29.5892 19.6114 29.5288C20.8025 29.213 21.9466 28.741 23.0139 28.125C23.2171 28.0073 23.3898 27.8434 23.5181 27.6467C23.6464 27.45 23.7268 27.2259 23.7527 26.9925L24.0627 24.2075L24.2014 24.0688L26.9877 23.75C27.2211 23.7241 27.4452 23.6438 27.6419 23.5155C27.8386 23.3872 28.0024 23.2145 28.1202 23.0113C28.7381 21.9439 29.2118 20.7994 29.5289 19.6075C29.5888 19.381 29.5947 19.1436 29.5463 18.9144C29.4979 18.6852 29.3965 18.4705 29.2502 18.2875L27.5002 16.0988ZM24.4852 15.4875C24.5052 15.8289 24.5052 16.1711 24.4852 16.5125C24.4628 16.8836 24.5791 17.2498 24.8114 17.54L26.4164 19.5463C26.2649 19.9947 26.0841 20.4328 25.8752 20.8575L23.3214 21.1413C22.9517 21.1835 22.6109 21.3617 22.3652 21.6413C22.1381 21.8971 21.896 22.1392 21.6402 22.3663C21.3606 22.612 21.1824 22.9528 21.1402 23.3225L20.8577 25.875C20.433 26.0848 19.9949 26.2664 19.5464 26.4188L17.5402 24.8125C17.2739 24.6001 16.9433 24.4846 16.6027 24.485C16.5727 24.485 16.5427 24.485 16.5127 24.485C16.1713 24.505 15.829 24.505 15.4877 24.485C15.1168 24.463 14.7509 24.5788 14.4602 24.81L12.4539 26.4163C12.0055 26.2648 11.5674 26.084 11.1427 25.875L10.8589 23.3213C10.8166 22.9515 10.6384 22.6107 10.3589 22.365C10.1031 22.1379 9.86099 21.8958 9.63391 21.64C9.38822 21.3605 9.0474 21.1823 8.67766 21.14L6.12516 20.8575C5.91538 20.4328 5.73374 19.9948 5.58141 19.5463L7.18641 17.54C7.41874 17.2498 7.535 16.8836 7.51266 16.5125C7.49266 16.1711 7.49266 15.8289 7.51266 15.4875C7.535 15.1164 7.41874 14.7503 7.18641 14.46L5.58391 12.4538C5.73542 12.0053 5.91623 11.5673 6.12516 11.1425L8.67891 10.8588C9.04865 10.8165 9.38947 10.6383 9.63516 10.3588C9.86224 10.1029 10.1043 9.86084 10.3602 9.63377C10.6397 9.38808 10.8179 9.04725 10.8602 8.67752L11.1427 6.12502C11.5674 5.91523 12.0054 5.73359 12.4539 5.58127L14.4602 7.18752C14.7509 7.41875 15.1168 7.53449 15.4877 7.51252C15.829 7.49252 16.1713 7.49252 16.5127 7.51252C16.8836 7.53521 17.2498 7.41939 17.5402 7.18752L19.5464 5.58127C19.9949 5.73359 20.433 5.91523 20.8577 6.12502L21.1414 8.67877C21.1837 9.0485 21.3619 9.38933 21.6414 9.63502C21.8972 9.86209 22.1393 10.1042 22.3664 10.36C22.6121 10.6395 22.9529 10.8177 23.3227 10.86L25.8752 11.1425C26.085 11.5672 26.2666 12.0052 26.4189 12.4538L24.8139 14.46C24.5807 14.7499 24.4635 15.1161 24.4852 15.4875Z" fill="rgba(229, 234, 245, 0.3)"/>
</svg>
