<svg width="21" height="20" viewBox="0 0 21 20" fill="none" xmlns="http://www.w3.org/2000/svg">
<path d="M18.625 16.5625H17.0625V3.125C17.0625 2.7106 16.8979 2.31317 16.6049 2.02015C16.3118 1.72712 15.9144 1.5625 15.5 1.5625H5.5C5.0856 1.5625 4.68817 1.72712 4.39515 2.02015C4.10212 2.31317 3.9375 2.7106 3.9375 3.125V16.5625H2.375C2.12636 16.5625 1.8879 16.6613 1.71209 16.8371C1.53627 17.0129 1.4375 17.2514 1.4375 17.5C1.4375 17.7486 1.53627 17.9871 1.71209 18.1629C1.8879 18.3387 2.12636 18.4375 2.375 18.4375H18.625C18.8736 18.4375 19.1121 18.3387 19.2879 18.1629C19.4637 17.9871 19.5625 17.7486 19.5625 17.5C19.5625 17.2514 19.4637 17.0129 19.2879 16.8371C19.1121 16.6613 18.8736 16.5625 18.625 16.5625ZM5.8125 3.4375H15.1875V16.5625H5.8125V3.4375ZM13.9375 10.3125C13.9375 10.5597 13.8642 10.8014 13.7268 11.007C13.5895 11.2125 13.3943 11.3727 13.1659 11.4674C12.9374 11.562 12.6861 11.5867 12.4436 11.5385C12.2012 11.4903 11.9784 11.3712 11.8036 11.1964C11.6288 11.0216 11.5097 10.7988 11.4615 10.5564C11.4133 10.3139 11.438 10.0626 11.5326 9.83415C11.6273 9.60574 11.7875 9.41051 11.993 9.27316C12.1986 9.13581 12.4403 9.0625 12.6875 9.0625C13.019 9.0625 13.337 9.1942 13.5714 9.42862C13.8058 9.66304 13.9375 9.98098 13.9375 10.3125Z" fill="#494D5F"/>
</svg>
