<svg width="24" height="24" viewBox="0 0 24 24" fill="none" xmlns="http://www.w3.org/2000/svg">
<path d="M19.5 7.125H9.375V5.25C9.375 4.55381 9.65156 3.88613 10.1438 3.39384C10.6361 2.90156 11.3038 2.625 12 2.625C13.2666 2.625 14.4047 3.52687 14.6475 4.72406C14.6769 4.86884 14.7346 5.00641 14.8172 5.12892C14.8998 5.25142 15.0057 5.35645 15.1289 5.43802C15.252 5.51959 15.3901 5.5761 15.5351 5.60432C15.6801 5.63254 15.8293 5.63192 15.9741 5.6025C16.1188 5.57308 16.2564 5.51542 16.3789 5.43283C16.5014 5.35024 16.6065 5.24433 16.688 5.12115C16.7696 4.99797 16.8261 4.85992 16.8543 4.7149C16.8825 4.56988 16.8819 4.42072 16.8525 4.27594C16.3941 2.01562 14.3531 0.375 12 0.375C10.7075 0.376489 9.46842 0.890581 8.5545 1.8045C7.64058 2.71842 7.12649 3.95753 7.125 5.25V7.125H4.5C4.00272 7.125 3.52581 7.32254 3.17417 7.67417C2.82254 8.02581 2.625 8.50272 2.625 9V19.5C2.625 19.9973 2.82254 20.4742 3.17417 20.8258C3.52581 21.1775 4.00272 21.375 4.5 21.375H19.5C19.9973 21.375 20.4742 21.1775 20.8258 20.8258C21.1775 20.4742 21.375 19.9973 21.375 19.5V9C21.375 8.50272 21.1775 8.02581 20.8258 7.67417C20.4742 7.32254 19.9973 7.125 19.5 7.125ZM19.125 19.125H4.875V9.375H19.125V19.125ZM10.875 16.2806V16.875C10.875 17.1734 10.9935 17.4595 11.2045 17.6705C11.4155 17.8815 11.7016 18 12 18C12.2984 18 12.5845 17.8815 12.7955 17.6705C13.0065 17.4595 13.125 17.1734 13.125 16.875V16.2806C13.7704 16.0195 14.3049 15.5421 14.6369 14.9302C14.9689 14.3182 15.0777 13.6099 14.9448 12.9265C14.8118 12.2431 14.4452 11.6273 13.908 11.1845C13.3707 10.7417 12.6962 10.4996 12 10.4996C11.3038 10.4996 10.6293 10.7417 10.092 11.1845C9.55476 11.6273 9.18823 12.2431 9.05524 12.9265C8.92225 13.6099 9.03109 14.3182 9.36309 14.9302C9.6951 15.5421 10.2296 16.0195 10.875 16.2806ZM12 12.75C12.1483 12.75 12.2933 12.794 12.4167 12.8764C12.54 12.9588 12.6361 13.0759 12.6929 13.213C12.7497 13.35 12.7645 13.5008 12.7356 13.6463C12.7067 13.7918 12.6352 13.9254 12.5303 14.0303C12.4254 14.1352 12.2918 14.2067 12.1463 14.2356C12.0008 14.2645 11.85 14.2497 11.713 14.1929C11.5759 14.1361 11.4588 14.04 11.3764 13.9167C11.294 13.7933 11.25 13.6483 11.25 13.5C11.25 13.3011 11.329 13.1103 11.4697 12.9697C11.6103 12.829 11.8011 12.75 12 12.75Z" fill="#E5EAF5"/>
</svg>
