<svg width="24" height="24" viewBox="0 0 24 24" fill="none" xmlns="http://www.w3.org/2000/svg">
<path d="M19.5 7.125H16.875V5.25C16.875 3.95707 16.3614 2.71709 15.4471 1.80285C14.5329 0.888615 13.2929 0.375 12 0.375C10.7071 0.375 9.46709 0.888615 8.55285 1.80285C7.63861 2.71709 7.125 3.95707 7.125 5.25V7.125H4.5C4.00272 7.125 3.52581 7.32254 3.17417 7.67417C2.82254 8.02581 2.625 8.50272 2.625 9V19.5C2.625 19.9973 2.82254 20.4742 3.17417 20.8258C3.52581 21.1775 4.00272 21.375 4.5 21.375H19.5C19.9973 21.375 20.4742 21.1775 20.8258 20.8258C21.1775 20.4742 21.375 19.9973 21.375 19.5V9C21.375 8.50272 21.1775 8.02581 20.8258 7.67417C20.4742 7.32254 19.9973 7.125 19.5 7.125ZM9.375 5.25C9.375 4.55381 9.65156 3.88613 10.1438 3.39384C10.6361 2.90156 11.3038 2.625 12 2.625C12.6962 2.625 13.3639 2.90156 13.8562 3.39384C14.3484 3.88613 14.625 4.55381 14.625 5.25V7.125H9.375V5.25ZM19.125 19.125H4.875V9.375H19.125V19.125ZM12 10.5C11.304 10.5003 10.6297 10.7425 10.0927 11.1853C9.55569 11.628 9.18932 12.2437 9.05636 12.9269C8.9234 13.6101 9.03212 14.3183 9.36391 14.9301C9.69569 15.5419 10.2299 16.0194 10.875 16.2806V16.875C10.875 17.1734 10.9935 17.4595 11.2045 17.6705C11.4155 17.8815 11.7016 18 12 18C12.2984 18 12.5845 17.8815 12.7955 17.6705C13.0065 17.4595 13.125 17.1734 13.125 16.875V16.2806C13.7701 16.0194 14.3043 15.5419 14.6361 14.9301C14.9679 14.3183 15.0766 13.6101 14.9436 12.9269C14.8107 12.2437 14.4443 11.628 13.9073 11.1853C13.3703 10.7425 12.696 10.5003 12 10.5ZM12 12.75C12.1483 12.75 12.2933 12.794 12.4167 12.8764C12.54 12.9588 12.6361 13.0759 12.6929 13.213C12.7497 13.35 12.7645 13.5008 12.7356 13.6463C12.7067 13.7918 12.6352 13.9254 12.5303 14.0303C12.4254 14.1352 12.2918 14.2067 12.1463 14.2356C12.0008 14.2645 11.85 14.2497 11.713 14.1929C11.5759 14.1361 11.4588 14.04 11.3764 13.9167C11.294 13.7933 11.25 13.6483 11.25 13.5C11.25 13.3011 11.329 13.1103 11.4697 12.9697C11.6103 12.829 11.8011 12.75 12 12.75Z" fill="#494D5F"/>
</svg>
