<svg width="25" height="25" viewBox="0 0 25 25" fill="none" xmlns="http://www.w3.org/2000/svg">
<path d="M11.3281 12.8906C11.3281 13.3542 11.1907 13.8073 10.9331 14.1927C10.6756 14.5782 10.3096 14.8786 9.88129 15.056C9.45302 15.2334 8.98178 15.2798 8.52713 15.1893C8.07249 15.0989 7.65487 14.8757 7.32709 14.5479C6.99931 14.2201 6.77609 13.8025 6.68566 13.3479C6.59523 12.8932 6.64164 12.422 6.81903 11.9937C6.99643 11.5654 7.29683 11.1994 7.68226 10.9419C8.06768 10.6843 8.52082 10.5469 8.98438 10.5469C9.60598 10.5469 10.2021 10.7938 10.6417 11.2333C11.0812 11.6729 11.3281 12.269 11.3281 12.8906ZM16.0156 10.5469C15.5521 10.5469 15.0989 10.6843 14.7135 10.9419C14.3281 11.1994 14.0277 11.5654 13.8503 11.9937C13.6729 12.422 13.6265 12.8932 13.7169 13.3479C13.8073 13.8025 14.0306 14.2201 14.3583 14.5479C14.6861 14.8757 15.1037 15.0989 15.5584 15.1893C16.013 15.2798 16.4843 15.2334 16.9125 15.056C17.3408 14.8786 17.7068 14.5782 17.9644 14.1927C18.2219 13.8073 18.3594 13.3542 18.3594 12.8906C18.3594 12.269 18.1124 11.6729 17.6729 11.2333C17.2334 10.7938 16.6372 10.5469 16.0156 10.5469ZM23.0469 11.3281C23.0469 14.2432 21.7725 16.9707 19.5312 18.8984V21.0938C19.5312 21.6118 19.3255 22.1085 18.9592 22.4748C18.5929 22.8411 18.0961 23.0469 17.5781 23.0469H7.42188C6.90387 23.0469 6.40709 22.8411 6.04081 22.4748C5.67453 22.1085 5.46875 21.6118 5.46875 21.0938V18.8984C3.22266 16.9707 1.95312 14.2432 1.95312 11.3281C1.95312 5.72754 6.68457 1.17188 12.5 1.17188C18.3154 1.17188 23.0469 5.72754 23.0469 11.3281ZM20.7031 11.3281C20.7031 7.02051 17.0234 3.51562 12.5 3.51562C7.97656 3.51562 4.29688 7.02051 4.29688 11.3281C4.29688 13.7021 5.41113 15.918 7.35449 17.4121C7.49701 17.5216 7.61244 17.6624 7.69186 17.8236C7.77127 17.9848 7.81255 18.1621 7.8125 18.3418V20.7031H9.375V18.75C9.375 18.4392 9.49847 18.1411 9.71823 17.9214C9.938 17.7016 10.2361 17.5781 10.5469 17.5781C10.8577 17.5781 11.1557 17.7016 11.3755 17.9214C11.5953 18.1411 11.7188 18.4392 11.7188 18.75V20.7031H13.2812V18.75C13.2812 18.4392 13.4047 18.1411 13.6245 17.9214C13.8443 17.7016 14.1423 17.5781 14.4531 17.5781C14.7639 17.5781 15.062 17.7016 15.2818 17.9214C15.5015 18.1411 15.625 18.4392 15.625 18.75V20.7031H17.1875V18.3418C17.1876 18.1623 17.2289 17.9851 17.3084 17.8241C17.3878 17.6631 17.5031 17.5225 17.6455 17.4131C19.5889 15.918 20.7031 13.7021 20.7031 11.3281Z" fill="#EDA1A1"/>
</svg>
