<svg width="40" height="40" viewBox="0 0 40 40" fill="none" xmlns="http://www.w3.org/2000/svg">
<path d="M32.3438 4.375H7.65625C6.78601 4.375 5.95141 4.7207 5.33606 5.33606C4.7207 5.95141 4.375 6.78601 4.375 7.65625V15.3453C4.37523 15.9751 4.55671 16.5916 4.89778 17.121C5.23884 17.6505 5.72508 18.0706 6.29844 18.3313L15.0484 22.3109C13.7018 23.3445 12.7126 24.7739 12.22 26.3985C11.7273 28.023 11.7559 29.761 12.3016 31.3685C12.8474 32.976 13.8829 34.3721 15.2629 35.3609C16.6428 36.3497 18.2977 36.8814 19.9953 36.8814C21.6929 36.8814 23.3479 36.3497 24.7278 35.3609C26.1077 34.3721 27.1432 32.976 27.689 31.3685C28.2347 29.761 28.2633 28.023 27.7706 26.3985C27.278 24.7739 26.2889 23.3445 24.9422 22.3109L33.6922 18.3313C34.2673 18.072 34.7555 17.6525 35.0983 17.1229C35.4411 16.5933 35.624 15.9762 35.625 15.3453V7.65625C35.625 6.78601 35.2793 5.95141 34.6639 5.33606C34.0486 4.7207 33.214 4.375 32.3438 4.375ZM20 20.4406L15.625 18.4516V8.125H24.375V18.4516L20 20.4406ZM8.125 8.125H11.875V16.7469L8.125 15.0422V8.125ZM20 33.125C19.1347 33.125 18.2888 32.8684 17.5694 32.3877C16.8499 31.9069 16.2892 31.2237 15.958 30.4242C15.6269 29.6248 15.5403 28.7451 15.7091 27.8965C15.8779 27.0478 16.2946 26.2683 16.9064 25.6564C17.5183 25.0446 18.2978 24.6279 19.1465 24.4591C19.9951 24.2903 20.8748 24.3769 21.6742 24.708C22.4737 25.0392 23.1569 25.5999 23.6377 26.3194C24.1184 27.0388 24.375 27.8847 24.375 28.75C24.375 29.9103 23.9141 31.0231 23.0936 31.8436C22.2731 32.6641 21.1603 33.125 20 33.125ZM31.875 15.0422L28.125 16.7469V8.125H31.875V15.0422Z" fill="#F1C644"/>
</svg>
