<svg width="32" height="32" viewBox="0 0 32 32" fill="none" xmlns="http://www.w3.org/2000/svg">
<path d="M28.7673 3.2325C28.4531 2.91823 28.0608 2.69337 27.6309 2.5811C27.2009 2.46883 26.7488 2.4732 26.3211 2.59375L26.2936 2.6025L2.3048 9.875C1.81755 10.0163 1.38481 10.3024 1.06406 10.6955C0.743306 11.0886 0.549727 11.5699 0.509034 12.0756C0.46834 12.5813 0.582457 13.0874 0.836227 13.5267C1.09 13.9659 1.47141 14.3176 1.9298 14.535L12.4698 19.535L17.4698 30.075C17.6694 30.5031 17.9873 30.8653 18.3859 31.1186C18.7846 31.372 19.2474 31.5061 19.7198 31.505C19.791 31.505 19.8636 31.505 19.9361 31.4963C20.4413 31.456 20.9221 31.2617 21.3135 30.9396C21.7049 30.6175 21.988 30.1831 22.1248 29.695L29.3973 5.70625C29.401 5.69734 29.4039 5.68814 29.406 5.67875C29.5266 5.25103 29.531 4.7989 29.4187 4.36893C29.3064 3.93896 29.0816 3.54668 28.7673 3.2325ZM19.6248 27.615L15.4098 18.7163L21.066 13.06C21.3478 12.7782 21.5062 12.396 21.5062 11.9975C21.5062 11.599 21.3478 11.2168 21.066 10.935C20.7843 10.6532 20.4021 10.4949 20.0035 10.4949C19.605 10.4949 19.2228 10.6532 18.941 10.935L13.2848 16.5913L4.3848 12.375L26.2498 5.75L19.6248 27.615Z" fill="#494D5F"/>
</svg>
