<?xml version="1.0" standalone="no"?>
<!DOCTYPE svg PUBLIC "-//W3C//DTD SVG 20010904//EN"
 "http://www.w3.org/TR/2001/REC-SVG-20010904/DTD/svg10.dtd">
<svg version="1.0" xmlns="http://www.w3.org/2000/svg"
 width="1000.000000pt" height="1000.000000pt" viewBox="0 0 1000.000000 1000.000000"
 preserveAspectRatio="xMidYMid meet">

<g transform="translate(0.000000,1000.000000) scale(0.100000,-0.100000)"
fill="#E5EAF5" stroke="none">
<path d="M4076 6401 l-3499 -3499 -58 -344 c-32 -188 -72 -424 -89 -523 -16
-99 -50 -297 -74 -440 -25 -143 -79 -462 -121 -710 -42 -247 -87 -513 -100
-590 -14 -77 -25 -147 -25 -157 0 -24 15 -23 190 7 80 14 343 59 585 100 242
41 505 86 585 100 80 13 255 43 390 66 135 22 424 71 643 108 l398 67 3497
3497 3497 3497 -1160 1160 -1160 1160 -3499 -3499z m944 -1056 l-3175 -3175
-310 310 -310 310 3175 3175 3175 3175 310 -310 310 -310 -3175 -3175z m3805
2545 l310 -310 -3176 -3176 -3177 -3177 -311 314 -312 313 3173 3173 c1745
1745 3175 3173 3178 3173 3 0 145 -140 315 -310z m-7140 -6200 c357 -357 647
-651 645 -653 -5 -4 -111 -22 -765 -133 -143 -24 -269 -44 -281 -44 -23 0
-440 395 -438 414 5 53 180 1066 184 1066 3 0 297 -292 655 -650z"/>
</g>
</svg>
