<svg width="25" height="25" viewBox="0 0 25 25" fill="none" xmlns="http://www.w3.org/2000/svg">
<path d="M21.4844 9.37523C21.4852 7.86904 21.1074 6.38679 20.3856 5.0648C19.6639 3.7428 18.6213 2.62348 17.3538 1.80975C16.0864 0.996018 14.6347 0.514 13.1322 0.408015C11.6297 0.302029 10.1247 0.575477 8.75558 1.20321C7.38643 1.83095 6.19707 2.79283 5.29686 4.00042C4.39665 5.208 3.81448 6.62252 3.60388 8.11392C3.39328 9.60532 3.56102 11.1257 4.09166 12.5354C4.6223 13.945 5.49882 15.1986 6.64063 16.1809V23.4377C6.64065 23.6375 6.69174 23.834 6.78906 24.0084C6.88637 24.1829 7.02667 24.3296 7.19663 24.4346C7.36659 24.5396 7.56057 24.5994 7.76014 24.6083C7.95972 24.6172 8.15826 24.575 8.33691 24.4856L12.5 22.4045L16.6641 24.4856C16.8427 24.5748 17.0411 24.6168 17.2406 24.6078C17.44 24.5987 17.6338 24.5389 17.8036 24.4339C17.9734 24.329 18.1136 24.1824 18.2109 24.008C18.3082 23.8337 18.3593 23.6374 18.3594 23.4377V16.1809C19.3398 15.3386 20.1266 14.2944 20.666 13.1198C21.2054 11.9451 21.4845 10.6678 21.4844 9.37523ZM5.85938 9.37523C5.85938 8.06184 6.24884 6.77795 6.97852 5.6859C7.7082 4.59385 8.74533 3.74271 9.95874 3.2401C11.1722 2.73748 12.5074 2.60598 13.7955 2.86221C15.0837 3.11844 16.2669 3.75089 17.1956 4.6796C18.1243 5.60831 18.7568 6.79156 19.013 8.07971C19.2693 9.36787 19.1377 10.7031 18.6351 11.9165C18.1325 13.1299 17.2814 14.167 16.1893 14.8967C15.0973 15.6264 13.8134 16.0159 12.5 16.0159C10.7394 16.014 9.05133 15.3138 7.80637 14.0689C6.5614 12.8239 5.86119 11.1359 5.85938 9.37523ZM16.0156 21.5422L13.0234 20.0461C12.8606 19.9647 12.6811 19.9222 12.499 19.9222C12.317 19.9222 12.1374 19.9647 11.9746 20.0461L8.98438 21.5413V17.6428C10.0962 18.1156 11.2919 18.3592 12.5 18.3592C13.7081 18.3592 14.9038 18.1156 16.0156 17.6428V21.5422ZM12.5 14.4534C13.5044 14.4534 14.4862 14.1555 15.3213 13.5975C16.1563 13.0395 16.8072 12.2465 17.1916 11.3185C17.5759 10.3906 17.6765 9.3696 17.4805 8.38454C17.2846 7.39948 16.801 6.49465 16.0908 5.78446C15.3806 5.07427 14.4758 4.59062 13.4907 4.39468C12.5056 4.19874 11.4846 4.29931 10.5567 4.68366C9.62878 5.06801 8.83569 5.71889 8.27769 6.55398C7.7197 7.38907 7.42188 8.37088 7.42188 9.37523C7.42343 10.7216 7.95894 12.0123 8.91094 12.9643C9.86293 13.9163 11.1537 14.4518 12.5 14.4534ZM12.5 6.64086C13.0408 6.64086 13.5695 6.80123 14.0191 7.10168C14.4688 7.40214 14.8193 7.82919 15.0262 8.32883C15.2332 8.82847 15.2873 9.37827 15.1818 9.90868C15.0763 10.4391 14.8159 10.9263 14.4335 11.3087C14.0511 11.6911 13.5639 11.9516 13.0335 12.0571C12.503 12.1626 11.9532 12.1084 11.4536 11.9015C10.954 11.6945 10.5269 11.344 10.2265 10.8944C9.92599 10.4447 9.76563 9.91604 9.76563 9.37523C9.76563 8.65003 10.0537 7.95453 10.5665 7.44174C11.0793 6.92894 11.7748 6.64086 12.5 6.64086Z" fill="#F1C644"/>
</svg>
