<svg width="109" height="64" viewBox="0 0 109 64" fill="none" xmlns="http://www.w3.org/2000/svg">
<g filter="url(#filter0_d_272_24776)">
<path d="M12.9765 54.9291L12.6581 55.1791C12.4129 55.3802 12.1067 55.5691 11.7395 55.7459C11.3851 55.8954 11.1577 55.9882 11.0573 56.0241C10.9971 56.0457 10.8529 56.086 10.6247 56.145C10.4095 56.1767 10.2517 56.2106 10.1513 56.2465C10.091 56.2681 10.0286 56.3471 9.96417 56.4835L8.43586 56.4868C8.39991 56.3864 8.36755 56.296 8.33879 56.2157C8.33011 56.1281 8.31783 56.0306 8.30196 55.923C8.24146 55.6274 8.1781 55.3555 8.1119 55.1073C8.05858 54.8318 7.97229 54.5908 7.85302 54.3842C7.95617 54.166 7.80008 53.6668 7.38474 52.8864C6.96221 52.086 6.7114 51.5753 6.6323 51.3544C6.61073 51.2941 6.57328 51.1263 6.51997 50.8508C6.46666 50.5753 6.42413 50.3299 6.39239 50.1147C6.3909 50.0473 6.40231 49.9525 6.42661 49.8305C6.47099 49.7014 6.47161 49.5765 6.42847 49.456C6.17976 48.8879 6.03086 48.4087 5.98176 48.0184C5.94556 47.6009 5.83906 47.2085 5.66226 46.8412C5.60622 46.748 5.58031 46.644 5.58452 46.5292C5.58874 46.4144 5.56208 46.2766 5.50455 46.116L5.1486 45.1218C5.04793 44.8406 4.93647 44.5293 4.81422 44.1878C4.68478 43.8263 4.54741 43.411 4.4021 42.9418C4.0986 42.0308 3.89291 41.4247 3.78505 41.1234C3.69727 40.8149 3.65189 40.5932 3.64891 40.4584C3.59709 40.2503 3.58977 40.0717 3.62697 39.9224C3.68425 39.7659 3.66255 39.5471 3.56188 39.2659C3.55468 39.2458 3.49294 39.2 3.37665 39.1283C3.28044 39.0494 3.15336 38.9477 2.99541 38.8229C2.90639 38.7642 2.83026 38.6781 2.76703 38.5648C2.7038 38.4515 2.65421 38.3446 2.61825 38.2442C2.59519 38.1165 2.56928 38.0125 2.54052 37.9321C2.53184 37.8446 2.45919 37.61 2.32256 37.2284C2.80732 36.8736 3.33089 36.5955 3.89327 36.3941C4.45564 36.1928 4.90036 36.0109 5.22742 35.8485C5.34074 35.7853 5.42393 35.7328 5.47699 35.6912C5.55014 35.6423 5.61684 35.6071 5.6771 35.5855C5.73016 35.5439 5.79686 35.5087 5.8772 35.4799C5.97044 35.4239 6.10743 35.3635 6.2882 35.2988C6.44045 35.4708 6.63001 35.6522 6.8569 35.8429C7.08379 36.0336 7.27335 36.215 7.4256 36.3871C7.81614 36.6551 8.12833 36.7359 8.36215 36.6296C8.59598 36.5232 8.78455 36.3537 8.92788 36.1211C9.09128 35.8813 9.21092 35.6459 9.2868 35.4148C9.35548 35.1636 9.40991 35.0308 9.45008 35.0164L12.8652 33.8277L16.0926 34.6776C16.229 34.7421 16.4027 34.8158 16.6137 34.8989C16.8175 34.9619 17.0494 35.0715 17.3092 35.2277C17.8619 35.5056 18.2351 35.5986 18.4288 35.5066L19.5293 36.3022C19.5107 36.3769 19.4851 36.59 19.4524 36.9416C19.4325 37.2659 19.3956 37.7323 19.3415 38.3408C19.2679 39.5908 19.3389 40.5171 19.5547 41.1196L19.0815 41.6969C18.7374 42.0014 18.6839 42.485 18.9212 43.1478C18.5654 43.2299 18.0498 43.5618 17.3743 44.1435C17.1894 44.323 16.9735 44.4796 16.7268 44.6133C16.4729 44.7268 16.239 44.8332 16.0253 44.9324C15.8919 45.0028 15.7549 45.0632 15.6143 45.1135C15.4938 45.1567 15.3632 45.2034 15.2227 45.2538L15.1609 46.1256C14.8552 46.0311 14.5409 46.0077 14.218 46.0553C13.8952 46.1029 13.5867 46.1907 13.2927 46.3186C13.0187 46.4394 12.7619 46.5767 12.5224 46.7304C12.2828 46.8841 12.0871 47.0335 11.9351 47.1786C11.3586 47.6569 11.0603 47.8997 11.0402 47.9068L10.8594 47.9716C10.8867 47.9845 10.9075 48.011 10.9219 48.0512C10.9536 48.2664 10.9696 48.5326 10.9699 48.8497C10.983 49.1396 11.0076 49.3347 11.0435 49.4352C11.0867 49.5557 11.1578 49.7228 11.257 49.9365C11.349 50.1302 11.4662 50.3941 11.6085 50.7284C11.7437 51.0426 11.8508 51.3101 11.9299 51.531C12.0291 51.7448 12.1002 51.9119 12.1434 52.0324L12.5551 52.8027C12.6528 52.949 12.7405 53.0989 12.8181 53.2524C12.8885 53.3858 12.9726 53.5256 13.0703 53.6719L12.9765 54.9291ZM8.30971 38.3818C8.36724 38.5425 8.43556 38.7333 8.51466 38.9542C8.61384 39.1679 8.72381 39.4118 8.84457 39.6858C9.39084 40.8951 9.68703 41.6275 9.73315 41.8829C9.41774 42.2677 9.30616 42.7155 9.39841 43.2263C9.43163 43.509 9.46127 43.7816 9.4873 44.0442C9.50615 44.2867 9.50417 44.5027 9.48135 44.6922L9.44267 44.774C9.52177 44.9949 9.5793 45.1556 9.61525 45.256C9.67129 45.3493 9.72448 45.4662 9.77482 45.6068L10.4875 45.7935L11.0059 45.4379C11.1641 45.8798 11.7028 45.6756 12.622 44.8253C13.5283 44.0023 14.0518 43.5656 14.1924 43.5153L15.4577 43.0623C15.5393 42.7838 15.6474 42.4845 15.782 42.1644C15.9095 41.8242 15.9624 41.624 15.9409 41.5637L15.5451 39.2242L15.0947 38.5357L10.063 37.1083L8.73745 37.5829L8.30971 38.3818ZM22.8497 51.4622C22.7448 51.2958 22.5812 51.2185 22.3588 51.2301C22.2497 51.1785 22.18 51.0789 22.1497 50.9311C22.1195 50.7833 22.067 50.7001 21.9924 50.6815C21.9579 50.6485 21.9307 50.6356 21.9106 50.6428C21.8905 50.65 21.8568 50.6508 21.8094 50.645C21.7749 50.6121 21.6895 50.5633 21.5531 50.4989C21.4641 50.4401 21.365 50.3849 21.2559 50.3334C21.1397 50.2617 21.0025 50.1635 20.8446 50.0388C20.523 49.8367 20.2731 49.6769 20.0951 49.5594C19.9099 49.4217 19.78 49.3436 19.7053 49.325C19.6106 49.3136 19.4613 49.2764 19.2575 49.2135C19.0537 49.1505 18.918 49.1197 18.8506 49.1212C18.7688 49.0825 18.6934 49.0302 18.6245 48.9643C18.5555 48.8983 18.4938 48.8524 18.4392 48.8266C18.3847 48.8008 18.2841 48.6782 18.1376 48.4588C17.991 48.2393 17.8553 48.05 17.7303 47.8908C17.4375 47.7691 16.9766 47.5262 16.3478 47.1622C16.1569 47.0719 16.0442 47.0103 16.0097 46.9773L16.1964 46.2647L17.9014 46.47C17.9287 46.4829 18.0291 46.4469 18.2027 46.3621C18.3963 46.2702 18.6036 46.1846 18.8245 46.1055C19.0383 46.0063 19.2492 45.9308 19.4572 45.879C19.6853 45.82 19.8475 45.8299 19.9437 45.9087C20.06 45.9804 20.1856 46.0147 20.3205 46.0118C20.4554 46.0088 20.5903 46.0058 20.7252 46.0028C20.873 45.9726 20.9906 45.9531 21.0781 45.9444C21.1858 45.9286 21.2604 45.9472 21.3021 46.0002L22.3037 46.8992C22.42 46.9709 22.6217 47.0913 22.9088 47.2604C23.2089 47.4022 23.6116 47.6092 24.1169 47.8815C25.142 48.4662 25.6682 48.765 25.6954 48.7779L25.9826 49.8647L23.8205 51.4205L22.8497 51.4622ZM38.9383 38.3264C38.4748 38.4244 38.1119 38.6449 37.8496 38.9881C37.7506 39.0915 37.6517 39.1949 37.5528 39.2983C37.4466 39.3816 37.3405 39.4649 37.2344 39.5482C37.1813 39.5899 37.1283 39.6316 37.0752 39.6732C37.0221 39.7149 36.9791 39.7529 36.9461 39.7874L33.2115 42.5521C31.9531 42.708 31.6096 43.0463 32.1812 43.5667C32.2918 43.6857 32.4476 43.8679 32.6487 44.1131C32.8498 44.3583 33.0021 44.5304 33.1055 44.6294C33.4025 44.6363 33.7312 44.6999 34.0915 44.8202C34.4446 44.9203 34.7488 44.9474 35.0042 44.9012L35.525 44.6468C35.6656 44.5965 35.8528 44.5181 36.0866 44.4118C36.3405 44.2982 36.5808 44.1782 36.8074 44.0517C37.0469 43.898 37.2528 43.745 37.4248 43.5927C37.617 43.4333 37.7317 43.2789 37.7689 43.1297C37.7932 43.0077 37.8584 42.905 37.9645 42.8217C38.0635 42.7183 38.166 42.6249 38.2721 42.5416C38.3453 42.4928 38.412 42.4576 38.4722 42.436C38.5454 42.3871 38.6286 42.3347 38.7218 42.2787L39.4739 43.335L39.3604 44.1573C39.3547 44.2047 39.3024 44.2801 39.2035 44.3835C39.1174 44.4596 39.0185 44.563 38.9067 44.6937C38.7948 44.8244 38.683 44.955 38.5712 45.0857C38.4722 45.1891 38.4034 45.2817 38.3647 45.3636C38.339 45.4181 38.2357 45.4777 38.0549 45.5425C37.8942 45.6 37.7034 45.6683 37.4825 45.7474C37.2817 45.8193 37.0744 45.9049 36.8606 46.004C36.6469 46.1032 36.4905 46.2045 36.3916 46.3079C36.1607 46.5492 35.9722 46.7187 35.8259 46.8164C35.6997 46.9069 35.5899 46.9801 35.4967 47.0362C35.4107 47.1123 35.3368 47.1274 35.275 47.0816C35.2277 47.0759 35.1538 47.091 35.0533 47.1269C34.9931 47.1485 34.9128 47.1773 34.8123 47.2132C34.7119 47.2492 34.6079 47.2751 34.5003 47.291C34.232 47.3644 34.0175 47.4298 33.8568 47.4874C33.6889 47.5248 33.5849 47.5507 33.5448 47.5651L30.1456 47.1846C29.8696 46.6036 29.4805 46.403 28.9784 46.5828C28.878 46.6188 28.7287 46.5816 28.5306 46.4712C28.3253 46.3408 28.1365 46.1931 27.9641 46.0283C27.8478 45.9566 27.738 45.8713 27.6346 45.7724C27.524 45.6533 27.4098 45.5243 27.292 45.3852L25.7912 42.0477L25.3397 39.9321C25.331 39.8446 25.3553 39.7226 25.4126 39.5661C25.4612 39.3221 25.504 38.9669 25.5409 38.5005C25.5565 38.291 25.6561 38.0627 25.8396 37.8158C26.0231 37.5688 26.2238 37.3383 26.4417 37.1243C26.6726 36.8831 26.8905 36.6691 27.0956 36.4824C27.3136 36.2684 27.4684 36.0996 27.5602 35.9761C27.8156 35.93 28.0736 35.5431 28.3342 34.8153C28.4043 34.6316 28.5154 34.4672 28.6674 34.3221C28.8122 34.157 28.9642 34.0119 29.1234 33.8869C29.2095 33.8108 29.3092 33.7411 29.4225 33.6779C29.5358 33.6147 29.6391 33.555 29.7323 33.499L33.419 32.6889C33.6342 32.6572 33.8667 32.6419 34.1164 32.6431C34.3058 32.666 34.5025 32.7089 34.7063 32.7718C34.9101 32.8348 35.091 32.9287 35.2489 33.0534C35.5118 33.3445 35.8133 33.5538 36.1535 33.6812C36.4865 33.7886 36.7477 33.8537 36.9372 33.8765L38.7638 35.4658L39.2239 37.5104L38.9383 38.3264ZM34.1127 38.8985L34.289 38.6314C34.3349 38.5697 34.3807 38.5079 34.4266 38.4462C34.4653 38.3644 34.5011 38.3062 34.5341 38.2717C34.6603 38.1812 34.7922 38.0434 34.9298 37.8581C35.0675 37.6729 35.0838 37.4971 34.9789 37.3307C34.8567 36.9893 34.5393 36.6724 34.0268 36.38C33.5142 36.0877 32.9344 35.9554 32.2872 35.9832C31.97 35.9834 31.6809 36.0303 31.4198 36.1238C31.1587 36.2173 30.9148 36.3272 30.6882 36.4537C30.4745 36.5529 30.2744 36.6585 30.0879 36.7706C29.9215 36.8755 29.7781 36.9495 29.6575 36.9927C29.1596 37.0576 28.974 37.362 29.1008 37.9058C28.9649 38.4756 28.9976 39.0417 29.199 39.6041C29.4132 40.1392 29.6604 40.6398 29.9406 41.106C30.0413 41.3871 30.1742 41.6001 30.3393 41.745C30.5246 41.8826 30.7047 41.9427 30.8798 41.9253C31.0548 41.908 31.2047 41.8203 31.3294 41.6624C31.4671 41.4772 31.5422 41.2123 31.5548 40.8679L34.1127 38.8985ZM58.5618 37.5206L54.5274 39.5429L53.1467 38.4397C53.0532 38.1786 52.856 38.2606 52.555 38.6856C52.4761 38.7818 52.4116 38.9182 52.3615 39.0947C52.3115 39.2713 52.2614 39.4478 52.2113 39.6244C52.1798 39.7263 52.1483 39.8282 52.1168 39.9301C52.0853 40.032 52.0574 40.144 52.0331 40.266C51.5759 40.9508 51.041 41.4822 50.4286 41.8601C49.8362 42.2308 49.2515 42.3382 48.6745 42.1822C48.3187 42.2643 48.0589 42.2666 47.8953 42.1893C47.8206 42.1707 47.7151 42.1291 47.5787 42.0647L45.6075 42.6345L44.6538 42.5341L43.2211 40.9057L43.1452 40.2191L41.5332 37.8052L42.0435 35.2433L42.7334 33.9426C43.0431 33.6051 43.4275 33.2862 43.8864 32.986C44.3454 32.6857 44.8188 32.4256 45.3065 32.2056C45.7871 31.9656 46.2655 31.783 46.7418 31.6577C47.211 31.5124 47.6142 31.4361 47.9514 31.4286C48.0665 31.75 48.2424 31.9249 48.4792 31.9534C48.716 31.9819 49.1472 31.9522 49.7728 31.8642C49.8514 31.4508 49.8044 31.0031 49.6318 30.5211C49.4521 30.019 49.1747 29.5291 48.7998 29.0515L47.7676 27.6876C47.5854 27.6849 47.2984 27.6744 46.9066 27.656C46.5277 27.6104 46.2098 27.5769 45.9529 27.5556L44.733 28.2303L43.5045 28.976L43.0306 28.6019L43.0815 27.6999L43.1199 27.1424L43.5093 26.901L44.8088 26.1638L46.1951 26.1433L47.4753 25.447L50.3768 25.2919L52.0956 26.58L54.2023 31.23L54.6512 32.7687L56.576 36.0563L57.0324 36.0968L57.9663 35.7625L58.7355 36.6767L58.5618 37.5206ZM45.7469 36.5685C45.8335 37.1267 45.9917 37.5685 46.2215 37.8941C46.4715 38.2125 46.7701 38.4454 47.1175 38.593L47.9038 39.3651C48.3085 39.3562 48.6823 39.3243 49.0252 39.2695C49.3682 39.2147 49.7031 39.1061 50.0302 38.9437C50.3702 38.754 50.7022 38.5105 51.0263 38.2132C51.3632 37.8886 51.7317 37.4621 52.1317 36.9337L51.6418 35.3757L50.1395 32.8885C49.8224 32.8887 49.5534 32.9284 49.3324 33.0075C49.1316 33.0794 48.9379 33.1714 48.7515 33.2835C48.532 33.43 48.2688 33.5809 47.9618 33.7361C47.6548 33.8914 47.3414 34.0602 47.0216 34.2427C46.7146 34.398 46.4349 34.5661 46.1825 34.7471C45.9429 34.9008 45.7845 35.0595 45.7071 35.2232L45.7469 36.5685ZM65.1835 13.4308L67.9898 12.63C68.3714 12.4934 68.5976 12.6504 68.6682 13.1009C68.6226 13.4798 68.6531 13.9447 68.7597 14.4957C68.8592 15.0266 68.9967 15.6005 69.1722 16.2174C69.5712 18.0912 69.9513 19.7226 70.3126 21.1114C70.6868 22.473 71.0091 23.6265 71.2797 24.572C71.5502 25.5174 71.7524 26.2721 71.8863 26.836C72.0403 27.3926 72.103 27.7894 72.0745 28.0262L73.2216 30.4706L73.2737 30.9958C73.3915 31.1349 73.5092 31.274 73.627 31.4131C73.7577 31.5249 73.8611 31.6239 73.9372 31.7099C74.0751 31.8418 74.1648 31.9343 74.2065 31.9874C74.2425 32.0878 74.2017 32.227 74.0841 32.4051C73.9867 32.5759 73.8491 32.7611 73.6713 32.9607C73.4935 33.1603 73.2956 33.3671 73.0777 33.5811C72.8525 33.775 72.6439 33.9517 72.4517 34.1112C72.2637 34.1558 72.1124 34.176 71.9975 34.1718C71.9028 34.1604 71.811 34.1253 71.7219 34.0665C71.6329 34.0078 71.5331 33.9189 71.4225 33.7998C71.332 33.6736 71.187 33.5216 70.9873 33.3438C70.7577 33.3354 70.4794 33.4124 70.1523 33.5748C69.8181 33.7172 69.5764 33.9283 69.4274 34.2082C69.4262 34.4579 69.3998 34.6373 69.3482 34.7464C69.3167 34.8484 69.2716 34.9438 69.2128 35.0328C69.1669 35.0946 69.101 35.1635 69.0149 35.2396C68.9289 35.3158 68.8372 35.4393 68.7397 35.6101C68.2319 35.8372 67.8072 36.0119 67.4658 36.1342C67.1444 36.2492 66.846 36.3334 66.5705 36.3867C66.308 36.4128 66.0518 36.4252 65.8021 36.4239C65.5452 36.4026 65.2474 36.3619 64.9087 36.3019C64.4654 36.3927 64.0715 36.4317 63.727 36.4191C63.4027 36.3993 63.115 36.355 62.8638 36.2863C62.6255 36.1903 62.4073 36.0872 62.2091 35.9769C62.0038 35.8464 61.8158 35.7325 61.6449 35.635L59.3139 33.2066L58.6296 30.6306C58.7543 30.4726 58.8496 30.3592 58.9156 30.2902C59.0016 30.2141 59.0676 30.1452 59.1135 30.0834C59.1593 30.0217 59.1916 29.9535 59.2102 29.8789C59.2416 29.777 59.2652 29.6212 59.2808 29.4117C59.3339 29.3701 59.3525 29.2954 59.3366 29.1878C59.3408 29.073 59.3113 28.9589 59.2481 28.8456C59.2049 28.7251 59.1417 28.6118 59.0584 28.5057C58.9751 28.3995 58.8825 28.3307 58.7806 28.2992L59.244 26.3659C59.3042 26.3443 59.3967 26.2545 59.5215 26.0966C59.639 25.9186 59.7831 25.7197 59.9537 25.5C60.1171 25.2602 60.3041 25.0233 60.5149 24.7892C60.7458 24.5479 61.001 24.3432 61.2807 24.1751C61.7856 23.8131 62.1886 23.5782 62.4899 23.4703C62.784 23.3423 62.9576 23.2575 63.0106 23.2159C63.1599 23.2531 63.3221 23.263 63.4971 23.2456C63.6722 23.2283 63.8372 23.2145 63.9922 23.2044C64.1601 23.1669 64.2978 23.1403 64.4054 23.1244C64.5259 23.0812 64.5962 23.0561 64.6163 23.0489C64.6364 23.0417 64.6881 23.0912 64.7714 23.1973C64.8547 23.3034 64.9589 23.4361 65.0838 23.5953C65.2088 23.7545 65.3539 23.9065 65.519 24.0513C65.6842 24.1961 65.8586 24.3036 66.0423 24.3737L66.6494 24.3603L67.0667 24.007L66.6586 22.4876L66.0766 21.3365C66.0835 21.0394 66.0647 20.7969 66.02 20.6089C65.9883 20.3937 65.9264 20.1893 65.8344 19.9956C65.7625 19.7948 65.6806 19.5975 65.5886 19.4038C65.4894 19.1901 65.3894 18.9426 65.2888 18.6614C65.4549 18.2394 65.5041 17.8706 65.4364 17.5549C65.3888 17.2321 65.1368 16.9711 64.6803 16.772L64.1863 15.4873L64.5036 13.8102L65.1835 13.4308ZM68.7895 33.281L69.3073 31.974C69.2183 31.9152 69.1844 31.7574 69.2057 31.5005C69.2271 31.2436 69.1673 30.9818 69.0265 30.715C68.956 30.5816 68.8345 30.2738 68.662 29.7918C68.5095 29.3026 68.3498 28.7933 68.1829 28.2639C68.016 27.7345 67.8707 27.2653 67.747 26.8564C67.616 26.4275 67.2742 26.074 66.7215 25.796L64.5732 25.6815L62.9984 26.7891L62.5085 27.9842C62.4227 28.3775 62.3663 28.7262 62.3393 29.0305C62.3324 29.3275 62.3591 29.6238 62.4196 29.9194C62.473 30.1949 62.56 30.4696 62.6808 30.7436C62.8015 31.0176 62.9531 31.3146 63.1356 31.6344C63.2393 32.0505 63.4146 32.3503 63.6616 32.5338C63.9085 32.7173 64.2215 32.8318 64.6004 32.8775L66.1056 33.6641L67.1604 33.7623C67.3226 33.7722 67.4546 33.7929 67.5566 33.8244C67.6714 33.8286 67.7725 33.8264 67.8601 33.8177C67.9605 33.7818 68.0774 33.7286 68.2108 33.6581C68.3643 33.5805 68.5572 33.4548 68.7895 33.281ZM88.236 13.5047L90.7176 13.1261L90.6562 14.4736L90.6886 14.564C90.7734 14.7376 90.8786 15.3797 91.0044 16.4903C91.0059 16.5577 90.9478 16.6805 90.8303 16.8585C90.7328 17.0293 90.6125 17.2311 90.4691 17.4637C90.3459 17.6891 90.2263 17.9245 90.1102 18.17C89.987 18.3954 89.924 18.5992 89.9213 18.7814L87.9474 27.0337L87.3672 28.2611C87.3141 28.3028 87.2646 28.3545 87.2188 28.4162C87.1858 28.4507 87.1492 28.4751 87.1091 28.4895L87.5204 28.7841L86.8703 31.4301L85.8954 34.4983L85.67 35.2927L82.0503 36.3848L80.9579 35.0424L81.8851 34.4045L82.3385 33.3925L82.7406 32.8067L82.4709 32.0535C82.5369 31.9846 82.5892 31.9092 82.6279 31.8273C82.6939 31.7584 82.7562 31.6794 82.815 31.5904C82.8995 31.4468 82.987 31.2796 83.0772 31.0887C83.1675 30.8977 83.2369 30.6803 83.2855 30.4363C83.4469 29.4948 83.3167 29.0995 82.895 29.2505C83.0125 29.0725 83.0906 28.9426 83.1293 28.8607C83.2582 28.588 83.2953 28.2801 83.2405 27.9372C83.0979 27.2858 82.9139 26.8985 82.6885 26.7753C82.5809 26.7911 82.2845 26.6593 81.7992 26.3799C81.5465 26.2438 81.3348 26.127 81.1639 26.0295C80.9931 25.9321 80.8603 25.8776 80.7656 25.8662C80.5228 25.5679 80.2054 25.251 79.8134 24.9156C79.4415 24.5729 79.0394 24.241 78.6072 23.9199C78.1879 23.5715 77.7621 23.2367 77.3299 22.9156C76.8977 22.5945 76.4964 22.2963 76.126 22.0211C75.0146 21.1954 74.1194 20.6888 73.4405 20.5014L72.9384 19.7634C73.0859 19.416 73.3333 19.1575 73.6804 18.9879C74.0677 18.8039 74.2986 18.5627 74.373 18.2641L75.8961 17.107C76.3295 17.1784 76.7436 17.2907 77.1384 17.444C77.6968 17.6746 78.2221 17.7811 78.7143 17.7635C78.8078 18.0246 78.9708 18.2268 79.2034 18.3701C79.436 18.5134 79.6851 18.6395 79.9506 18.7484C80.209 18.8371 80.4537 18.9195 80.6848 18.9953C80.936 19.064 81.127 19.1543 81.2576 19.2661C81.2648 19.2862 81.3 19.3529 81.3633 19.4662C81.4394 19.5523 81.499 19.6555 81.5422 19.776C81.6054 19.8894 81.6449 19.9998 81.6608 20.1075C81.6896 20.1878 81.6738 20.2387 81.6136 20.2603C81.5132 20.2963 81.5412 20.3429 81.6976 20.4002C81.8541 20.4574 82.1318 20.5053 82.5308 20.5437C82.5524 20.604 82.6321 20.7001 82.77 20.832C82.9279 20.9567 83.1131 21.0943 83.3256 21.2448C83.5381 21.3954 83.7542 21.5559 83.9739 21.7265C84.1864 21.877 84.3753 22.0247 84.5404 22.1695C84.9123 22.5122 85.2068 22.8599 85.4238 23.2128C85.6335 23.5455 85.7757 23.7212 85.8504 23.7398C85.8906 23.7254 85.9637 23.6766 86.0698 23.5933C86.1688 23.4899 86.2777 23.3829 86.3968 23.2723C86.5086 23.1416 86.5967 23.0081 86.6612 22.8717C86.7185 22.7152 86.7256 22.5768 86.6824 22.4562C86.6393 22.3357 86.5631 22.2497 86.454 22.1981L86.1461 22.0025C86.0499 21.9236 85.9673 21.8512 85.8984 21.7853C85.8294 21.7193 85.8007 21.639 85.8121 21.5442C85.9683 21.2844 86.075 21.0762 86.1323 20.9198C86.1824 20.7432 86.2482 20.5157 86.3298 20.2372C86.334 20.1224 86.3748 19.9832 86.4522 19.8196C86.5424 19.6286 86.6363 19.4477 86.7337 19.2769C86.8513 19.0988 86.9559 18.9481 87.0477 18.8246C87.1322 18.681 87.1709 18.5992 87.1637 18.5791C87.2093 18.2002 87.2284 17.8422 87.221 17.505C87.2063 17.1476 87.1751 16.649 87.1272 16.009C87.1114 15.9014 87.1256 15.783 87.17 15.6538C87.2345 15.5174 87.3025 15.3911 87.3742 15.2748C87.4588 15.1312 87.5304 15.0149 87.5892 14.9259C87.6608 14.8096 87.6959 14.7177 87.6944 14.6503C87.7001 14.6029 87.703 14.5793 87.703 14.5793C87.6958 14.5592 87.6951 14.5254 87.7008 14.4781L88.236 13.5047ZM97.5965 18.5827C97.5461 18.4421 97.5066 18.3316 97.4778 18.2513C97.4418 18.1509 97.375 18.0275 97.2773 17.8812C96.9971 17.4151 96.6304 16.3907 96.1771 14.8082C95.7397 13.3334 95.3048 12.2768 94.8723 11.6385C94.8376 11.2884 94.8087 11.0495 94.7857 10.9218C94.7626 10.7941 94.749 10.7877 94.7447 10.9025C94.7234 11.1594 94.693 10.853 94.6536 9.98341C94.2683 9.03372 93.9475 8.10622 93.6914 7.20091C93.4352 6.29561 93.2265 5.396 93.065 4.5021C92.9815 4.07883 92.8951 3.67924 92.8058 3.30333C92.7366 2.92023 92.6509 2.55436 92.5488 2.20573L93.1747 1.67571L96.9195 0.742867L97.7723 1.32124L98.5508 3.11585C98.3301 3.5121 98.2135 3.88243 98.2008 4.22685C98.1882 4.57126 98.2006 4.82741 98.238 4.99528C98.2755 5.16315 98.3252 5.42859 98.3872 5.79161C98.442 6.13454 98.4278 6.41151 98.3448 6.62253L98.3816 6.91524C98.7334 7.26512 98.9603 7.4558 99.0622 7.48729C99.1842 7.51159 99.2625 7.54023 99.2969 7.57321C99.3227 7.51866 99.3271 7.56242 99.31 7.7045C99.2857 7.8265 99.2435 8.05686 99.1835 8.39557C99.0764 9.04573 99.1125 9.30472 99.2917 9.17256C99.4137 9.19686 99.5739 10.3405 99.7723 12.6034C99.8115 13.1558 99.8448 13.5971 99.8724 13.9271C99.8999 14.2571 99.9159 14.5233 99.9203 14.7257C99.9449 14.9208 99.9615 15.0621 99.9702 15.1497C99.9789 15.2372 99.994 15.3111 100.016 15.3713C99.7044 15.6414 99.4398 15.8834 99.2218 16.0974C98.9967 16.2913 98.9057 16.4485 98.9488 16.569C98.9704 16.6293 99.0659 16.6744 99.2352 16.7044C99.4046 16.7344 99.584 16.7608 99.7734 16.7836C99.8882 16.7878 100.007 16.8021 100.129 16.8264C100.264 16.8234 100.398 16.8204 100.533 16.8175L100.228 17.6744L97.5965 18.5827ZM102.172 19.9697C102.113 20.0587 102.145 20.1153 102.267 20.1396C102.389 20.1639 102.409 20.1905 102.329 20.2192L102.938 22.1087L103.044 23.2602C102.978 23.3292 102.918 23.3845 102.865 23.4261C102.799 23.495 102.723 23.5676 102.637 23.6437C102.571 23.7126 102.485 23.7888 102.379 23.8721C101.971 24.313 101.726 24.5478 101.646 24.5765L100.348 24.4635C99.4823 24.3881 99.0087 24.3311 98.9269 24.2924C98.9165 23.8203 98.8127 23.2456 98.6156 22.5684C98.5581 22.4078 98.5077 22.2672 98.4646 22.1466C98.4415 22.0189 98.4156 21.9149 98.3868 21.8346C98.3509 21.7342 98.3322 21.6502 98.3307 21.5828C98.4038 21.5339 98.5838 21.4355 98.8707 21.2875C99.1576 21.1394 99.3269 21.0109 99.3784 20.9018C99.3928 20.9419 99.4423 20.8902 99.5268 20.7467L99.6645 20.5614C99.7046 20.547 99.7886 20.5283 99.9163 20.5053C100.064 20.475 100.286 20.4296 100.581 20.3691C100.877 20.3086 101.092 20.2769 101.227 20.2739C101.375 20.2437 101.459 20.2249 101.479 20.2177C101.599 20.1746 101.68 20.1458 101.72 20.1315C101.773 20.0898 101.809 20.0654 101.83 20.0582C101.87 20.0438 101.9 20.033 101.92 20.0258C101.96 20.0114 102.044 19.9927 102.172 19.9697Z" fill="#E27D5D"/>
</g>
<defs>
<filter id="filter0_d_272_24776" x="0.669922" y="0.133301" width="107.629" height="63.0778" filterUnits="userSpaceOnUse" color-interpolation-filters="sRGB">
<feFlood flood-opacity="0" result="BackgroundImageFix"/>
<feColorMatrix in="SourceAlpha" type="matrix" values="0 0 0 0 0 0 0 0 0 0 0 0 0 0 0 0 0 0 127 0" result="hardAlpha"/>
<feOffset dx="1" dy="1"/>
<feComposite in2="hardAlpha" operator="out"/>
<feColorMatrix type="matrix" values="0 0 0 0 0 0 0 0 0 0 0 0 0 0 0 0 0 0 0.25 0"/>
<feBlend mode="normal" in2="BackgroundImageFix" result="effect1_dropShadow_272_24776"/>
<feBlend mode="normal" in="SourceGraphic" in2="effect1_dropShadow_272_24776" result="shape"/>
</filter>
</defs>
</svg>
