<svg width="24" height="24" viewBox="0 0 24 24" fill="none" xmlns="http://www.w3.org/2000/svg">
<g clip-path="url(#clip0_412_26259)">
<path d="M22.4573 17.3081L12.4918 22.3681C12.3914 22.4192 12.2808 22.447 12.1682 22.4495C12.0556 22.4519 11.9439 22.429 11.8413 22.3824C11.7388 22.3358 11.6481 22.2667 11.5759 22.1802C11.5038 22.0937 11.452 21.9921 11.4245 21.8829C11.4185 21.8583 10.6999 19.1868 7.72477 16.2117C4.74961 13.2365 2.07808 12.5179 2.05156 12.5113C1.94276 12.4834 1.84161 12.4314 1.75558 12.3592C1.66955 12.287 1.60083 12.1964 1.55451 12.0941C1.50818 11.9918 1.48543 11.8803 1.48793 11.7681C1.49044 11.6558 1.51812 11.5455 1.56896 11.4453L6.63229 1.47909C6.73332 1.27926 6.8912 1.11378 7.08605 1.00345C7.2809 0.893118 7.50402 0.84287 7.72735 0.859025C7.95069 0.87518 8.16426 0.957016 8.3412 1.09424C8.51814 1.23146 8.65056 1.41795 8.72179 1.63023L10.3917 6.61467L17.7884 4.77575C17.9783 4.72874 18.1771 4.73159 18.3656 4.78402C18.554 4.83645 18.7257 4.93669 18.8641 5.07501C19.0024 5.21333 19.1026 5.38504 19.1551 5.57349C19.2075 5.76195 19.2103 5.96075 19.1633 6.15063L17.3244 13.5474L22.3102 15.2186C22.5227 15.2899 22.7094 15.4226 22.8466 15.5999C22.9838 15.7772 23.0654 15.9912 23.0811 16.2148C23.0967 16.4384 23.0458 16.6617 22.9347 16.8564C22.8235 17.0511 22.6572 17.2085 22.4567 17.3088L22.4573 17.3081Z" fill="#9F9F9F"/>
<path d="M22.0095 16.4143L22.024 16.4432L22.0046 16.4165L12.3028 21.3425C12.0191 20.5068 11.0303 18.103 8.43187 15.5046C5.83125 12.9039 3.42659 11.9166 2.59482 11.6339L7.52383 1.93203L7.52469 1.93032C7.53673 1.90651 7.55555 1.88678 7.57877 1.87363C7.602 1.86048 7.62859 1.85449 7.65521 1.85642C7.68183 1.85834 7.70728 1.8681 7.72837 1.88445C7.74943 1.90079 7.7652 1.92297 7.77369 1.94823C7.77371 1.94826 7.77372 1.9483 7.77373 1.94834L9.44346 6.93234L9.7368 7.80792L10.6329 7.58513L18.0288 5.74645C18.0289 5.74642 18.029 5.74639 18.0291 5.74636C18.0516 5.74085 18.0752 5.74121 18.0975 5.74743C18.12 5.75368 18.1405 5.76563 18.157 5.78211C18.1734 5.7986 18.1854 5.81906 18.1916 5.84153C18.1979 5.86387 18.1982 5.88744 18.1927 5.90997C18.1927 5.91008 18.1927 5.9102 18.1926 5.91031L16.3539 13.3061L16.1312 14.2021L17.0066 14.4956L21.9922 16.1667C22.0174 16.1752 22.0395 16.1909 22.0557 16.2119C22.072 16.2329 22.0816 16.2582 22.0835 16.2847C22.0854 16.3112 22.0793 16.3377 22.0662 16.3607C22.053 16.3838 22.0333 16.4024 22.0095 16.4143ZM12.3928 21.6334C12.3933 21.6351 12.3937 21.6368 12.3942 21.6385L12.3942 21.6386C12.3937 21.637 12.3933 21.6352 12.3928 21.6334ZM2.30303 11.5434C2.3019 11.5431 2.30083 11.5428 2.29981 11.5426C2.30088 11.5429 2.30196 11.5431 2.30303 11.5434Z" stroke="black" stroke-opacity="0.5" stroke-width="2"/>
</g>
<defs>
<clipPath id="clip0_412_26259">
<rect width="24" height="24" fill="white"/>
</clipPath>
</defs>
</svg>
