<svg width="20" height="20" viewBox="0 0 20 20" fill="none" xmlns="http://www.w3.org/2000/svg">
<path d="M17.9799 2.02031C17.7836 1.82389 17.5384 1.68336 17.2697 1.61319C17.0009 1.54302 16.7183 1.54575 16.451 1.6211L16.4338 1.62656L1.44087 6.17188C1.13633 6.26017 0.86587 6.43903 0.665401 6.68469C0.464932 6.93035 0.343946 7.23119 0.318512 7.54724C0.293079 7.86329 0.364402 8.1796 0.523008 8.45416C0.681614 8.72871 0.919997 8.94852 1.20649 9.08438L7.79399 12.2094L10.919 18.7969C11.0437 19.0645 11.2424 19.2908 11.4916 19.4492C11.7407 19.6075 12.03 19.6913 12.3252 19.6906C12.3698 19.6906 12.4151 19.6906 12.4604 19.6852C12.7762 19.66 13.0767 19.5385 13.3213 19.3372C13.5659 19.1359 13.7429 18.8644 13.8284 18.5594L18.3737 3.56641C18.376 3.56084 18.3778 3.55509 18.3791 3.54922C18.4545 3.28189 18.4572 2.99931 18.3871 2.73058C18.3169 2.46185 18.1764 2.21668 17.9799 2.02031ZM12.2659 17.2594L9.63149 11.6977L13.1666 8.1625C13.3428 7.98638 13.4417 7.74751 13.4417 7.49844C13.4417 7.24937 13.3428 7.0105 13.1666 6.83438C12.9905 6.65826 12.7517 6.55931 12.5026 6.55931C12.2535 6.55931 12.0146 6.65826 11.8385 6.83438L8.30337 10.3695L2.74087 7.73438L16.4065 3.59375L12.2659 17.2594Z" fill="#494D5F"/>
</svg>
