<svg width="21" height="20" viewBox="0 0 21 20" fill="none" xmlns="http://www.w3.org/2000/svg">
<path d="M7.0625 5C7.0625 4.75136 7.16127 4.5129 7.33709 4.33709C7.5129 4.16127 7.75136 4.0625 8 4.0625H17.375C17.6236 4.0625 17.8621 4.16127 18.0379 4.33709C18.2137 4.5129 18.3125 4.75136 18.3125 5C18.3125 5.24864 18.2137 5.4871 18.0379 5.66291C17.8621 5.83873 17.6236 5.9375 17.375 5.9375H8C7.75136 5.9375 7.5129 5.83873 7.33709 5.66291C7.16127 5.4871 7.0625 5.24864 7.0625 5ZM17.375 9.0625H8C7.75136 9.0625 7.5129 9.16127 7.33709 9.33709C7.16127 9.5129 7.0625 9.75136 7.0625 10C7.0625 10.2486 7.16127 10.4871 7.33709 10.6629C7.5129 10.8387 7.75136 10.9375 8 10.9375H17.375C17.6236 10.9375 17.8621 10.8387 18.0379 10.6629C18.2137 10.4871 18.3125 10.2486 18.3125 10C18.3125 9.75136 18.2137 9.5129 18.0379 9.33709C17.8621 9.16127 17.6236 9.0625 17.375 9.0625ZM17.375 14.0625H8C7.75136 14.0625 7.5129 14.1613 7.33709 14.3371C7.16127 14.5129 7.0625 14.7514 7.0625 15C7.0625 15.2486 7.16127 15.4871 7.33709 15.6629C7.5129 15.8387 7.75136 15.9375 8 15.9375H17.375C17.6236 15.9375 17.8621 15.8387 18.0379 15.6629C18.2137 15.4871 18.3125 15.2486 18.3125 15C18.3125 14.7514 18.2137 14.5129 18.0379 14.3371C17.8621 14.1613 17.6236 14.0625 17.375 14.0625ZM4.875 4.0625H3.625C3.37636 4.0625 3.1379 4.16127 2.96209 4.33709C2.78627 4.5129 2.6875 4.75136 2.6875 5C2.6875 5.24864 2.78627 5.4871 2.96209 5.66291C3.1379 5.83873 3.37636 5.9375 3.625 5.9375H4.875C5.12364 5.9375 5.3621 5.83873 5.53791 5.66291C5.71373 5.4871 5.8125 5.24864 5.8125 5C5.8125 4.75136 5.71373 4.5129 5.53791 4.33709C5.3621 4.16127 5.12364 4.0625 4.875 4.0625ZM4.875 9.0625H3.625C3.37636 9.0625 3.1379 9.16127 2.96209 9.33709C2.78627 9.5129 2.6875 9.75136 2.6875 10C2.6875 10.2486 2.78627 10.4871 2.96209 10.6629C3.1379 10.8387 3.37636 10.9375 3.625 10.9375H4.875C5.12364 10.9375 5.3621 10.8387 5.53791 10.6629C5.71373 10.4871 5.8125 10.2486 5.8125 10C5.8125 9.75136 5.71373 9.5129 5.53791 9.33709C5.3621 9.16127 5.12364 9.0625 4.875 9.0625ZM4.875 14.0625H3.625C3.37636 14.0625 3.1379 14.1613 2.96209 14.3371C2.78627 14.5129 2.6875 14.7514 2.6875 15C2.6875 15.2486 2.78627 15.4871 2.96209 15.6629C3.1379 15.8387 3.37636 15.9375 3.625 15.9375H4.875C5.12364 15.9375 5.3621 15.8387 5.53791 15.6629C5.71373 15.4871 5.8125 15.2486 5.8125 15C5.8125 14.7514 5.71373 14.5129 5.53791 14.3371C5.3621 14.1613 5.12364 14.0625 4.875 14.0625Z" fill="#494D5F"/>
</svg>
