<svg width="20" height="20" viewBox="0 0 20 20" fill="none" xmlns="http://www.w3.org/2000/svg">
<path d="M12.2867 1.65777C12.129 1.58068 11.9529 1.5494 11.7783 1.5675C11.6037 1.58559 11.4377 1.65233 11.2992 1.76011L5.92812 5.93746H2.5C2.0856 5.93746 1.68817 6.10208 1.39515 6.3951C1.10212 6.68813 0.9375 7.08555 0.9375 7.49996V12.5C0.9375 12.9144 1.10212 13.3118 1.39515 13.6048C1.68817 13.8978 2.0856 14.0625 2.5 14.0625H5.92812L11.2992 18.2398C11.4377 18.3476 11.6037 18.4143 11.7783 18.4324C11.9529 18.4505 12.1291 18.4193 12.2868 18.3422C12.4445 18.2651 12.5773 18.1453 12.6703 17.9964C12.7632 17.8475 12.8125 17.6755 12.8125 17.5V2.49996C12.8125 2.32443 12.7632 2.15244 12.6702 2.00355C12.5773 1.85466 12.4444 1.73485 12.2867 1.65777ZM10.9375 15.5835L6.82578 12.3851C6.66118 12.257 6.45857 12.1875 6.25 12.1875H2.8125V7.81246H6.25C6.45857 7.81245 6.66118 7.7429 6.82578 7.6148L10.9375 4.41714V15.5835ZM15.9375 8.12496V11.875C15.9375 12.1236 15.8387 12.3621 15.6629 12.5379C15.4871 12.7137 15.2486 12.8125 15 12.8125C14.7514 12.8125 14.5129 12.7137 14.3371 12.5379C14.1613 12.3621 14.0625 12.1236 14.0625 11.875V8.12496C14.0625 7.87631 14.1613 7.63786 14.3371 7.46204C14.5129 7.28623 14.7514 7.18746 15 7.18746C15.2486 7.18746 15.4871 7.28623 15.6629 7.46204C15.8387 7.63786 15.9375 7.87631 15.9375 8.12496ZM18.75 6.87496V13.125C18.75 13.3736 18.6512 13.6121 18.4754 13.7879C18.2996 13.9637 18.0611 14.0625 17.8125 14.0625C17.5639 14.0625 17.3254 13.9637 17.1496 13.7879C16.9738 13.6121 16.875 13.3736 16.875 13.125V6.87496C16.875 6.62631 16.9738 6.38786 17.1496 6.21204C17.3254 6.03623 17.5639 5.93746 17.8125 5.93746C18.0611 5.93746 18.2996 6.03623 18.4754 6.21204C18.6512 6.38786 18.75 6.62631 18.75 6.87496Z" fill="#494D5F"/>
</svg>
