<svg width="21" height="20" viewBox="0 0 21 20" fill="none" xmlns="http://www.w3.org/2000/svg">
<path d="M3.28879 5.93733C3.13888 5.93751 2.99117 5.90132 2.85832 5.83186C2.63772 5.71742 2.47159 5.52006 2.39643 5.28318C2.32128 5.04629 2.34326 4.78926 2.45754 4.56858C3.18527 3.14617 4.2784 1.94302 5.62473 1.08264C5.7288 1.01272 5.84585 0.96439 5.96894 0.940506C6.09202 0.916622 6.21865 0.917671 6.34132 0.943591C6.464 0.969511 6.58023 1.01977 6.68313 1.09141C6.78604 1.16304 6.87353 1.25459 6.94042 1.36063C7.00732 1.46668 7.05227 1.58506 7.0726 1.70879C7.09294 1.83251 7.08825 1.95905 7.05882 2.08093C7.02938 2.20281 6.9758 2.31754 6.90124 2.41835C6.82667 2.51915 6.73265 2.60397 6.62473 2.6678C5.55819 3.3478 4.69458 4.30262 4.12473 5.43186C4.04531 5.58481 3.92527 5.7129 3.7778 5.80208C3.63032 5.89125 3.46112 5.93805 3.28879 5.93733ZM18.5419 4.56858C17.8142 3.14617 16.721 1.94302 15.3747 1.08264C15.2706 1.01272 15.1536 0.96439 15.0305 0.940506C14.9074 0.916622 14.7808 0.917671 14.6581 0.943591C14.5355 0.969511 14.4192 1.01977 14.3163 1.09141C14.2134 1.16304 14.1259 1.25459 14.059 1.36063C13.9921 1.46668 13.9472 1.58506 13.9268 1.70879C13.9065 1.83251 13.9112 1.95905 13.9406 2.08093C13.9701 2.20281 14.0237 2.31754 14.0982 2.41835C14.1728 2.51915 14.2668 2.60397 14.3747 2.6678C15.4413 3.3478 16.3049 4.30262 16.8747 5.43186C16.9541 5.58481 17.0742 5.7129 17.2217 5.80208C17.3691 5.89125 17.5383 5.93805 17.7107 5.93733C17.8606 5.93751 18.0083 5.90132 18.1411 5.83186C18.3617 5.71742 18.5279 5.52006 18.603 5.28318C18.6782 5.04629 18.6562 4.78926 18.5419 4.56858ZM17.6779 13.1155C17.8542 13.3469 17.9624 13.623 17.9903 13.9127C18.0181 14.2023 17.9646 14.494 17.8356 14.7548C17.7066 15.0157 17.5074 15.2353 17.2603 15.389C17.0133 15.5427 16.7282 15.6244 16.4372 15.6248H13.8794C13.7328 16.4141 13.3146 17.1272 12.6973 17.6404C12.08 18.1536 11.3025 18.4345 10.4997 18.4345C9.69695 18.4345 8.91949 18.1536 8.30218 17.6404C7.68487 17.1272 7.26665 16.4141 7.12004 15.6248H4.56223C4.27105 15.6248 3.98566 15.5435 3.73825 15.3899C3.49085 15.2364 3.29127 15.0168 3.16202 14.7559C3.03278 14.4949 2.97902 14.2031 3.0068 13.9132C3.03458 13.6234 3.1428 13.3471 3.31926 13.1155C3.87941 12.3865 4.54816 11.0358 4.55988 8.74514C4.5605 7.17011 5.18678 5.65983 6.30094 4.54655C7.41509 3.43327 8.92586 2.80819 10.5009 2.80881C12.0759 2.80943 13.5862 3.43571 14.6995 4.54987C15.8128 5.66402 16.4378 7.17479 16.4372 8.74983C16.4489 11.0358 17.1177 12.3865 17.6779 13.1155ZM11.931 15.6248H9.06848C9.19031 15.903 9.39056 16.1396 9.64475 16.3058C9.89894 16.472 10.196 16.5605 10.4997 16.5605C10.8034 16.5605 11.1005 16.472 11.3547 16.3058C11.6089 16.1396 11.8091 15.903 11.931 15.6248ZM15.8372 13.7498C15.1997 12.7342 14.5724 11.1272 14.5607 8.75451C14.5716 8.21443 14.4746 7.67759 14.2756 7.17541C14.0765 6.67324 13.7793 6.21581 13.4013 5.82988C13.0233 5.44396 12.5721 5.1373 12.0742 4.92785C11.5762 4.71839 11.0415 4.61035 10.5013 4.61004C9.96114 4.60973 9.4263 4.71715 8.92813 4.92603C8.42995 5.13491 7.97843 5.44105 7.59999 5.82654C7.22156 6.21202 6.9238 6.66911 6.72415 7.17106C6.52449 7.673 6.42695 8.20973 6.43723 8.74983C6.42551 11.1264 5.79816 12.7342 5.16066 13.7498H15.8372Z" fill="#494D5F"/>
</svg>
