<svg width="32" height="32" viewBox="0 0 32 32" fill="none" xmlns="http://www.w3.org/2000/svg">
<path d="M16 2.5C13.33 2.5 10.7199 3.29176 8.49981 4.77516C6.27974 6.25856 4.54942 8.36697 3.52763 10.8338C2.50585 13.3006 2.2385 16.015 2.7594 18.6337C3.28031 21.2525 4.56606 23.6579 6.45406 25.5459C8.34207 27.434 10.7475 28.7197 13.3663 29.2406C15.985 29.7615 18.6994 29.4942 21.1662 28.4724C23.633 27.4506 25.7414 25.7203 27.2248 23.5002C28.7082 21.2801 29.5 18.67 29.5 16C29.496 12.4208 28.0724 8.98932 25.5416 6.45844C23.0107 3.92756 19.5792 2.50397 16 2.5ZM9.94626 24.5713C10.6426 23.6191 11.5537 22.8447 12.6056 22.3108C13.6574 21.7769 14.8204 21.4987 16 21.4987C17.1796 21.4987 18.3426 21.7769 19.3944 22.3108C20.4463 22.8447 21.3574 23.6191 22.0538 24.5713C20.2845 25.826 18.169 26.5 16 26.5C13.831 26.5 11.7155 25.826 9.94626 24.5713ZM12.5 15C12.5 14.3078 12.7053 13.6311 13.0899 13.0555C13.4744 12.4799 14.0211 12.0313 14.6606 11.7664C15.3002 11.5015 16.0039 11.4322 16.6828 11.5673C17.3618 11.7023 17.9854 12.0356 18.4749 12.5251C18.9644 13.0146 19.2977 13.6383 19.4328 14.3172C19.5678 14.9961 19.4985 15.6999 19.2336 16.3394C18.9687 16.9789 18.5201 17.5256 17.9445 17.9101C17.3689 18.2947 16.6922 18.5 16 18.5C15.0717 18.5 14.1815 18.1313 13.5251 17.4749C12.8688 16.8185 12.5 15.9283 12.5 15ZM24.25 22.4925C23.2778 21.2559 22.0385 20.2551 20.625 19.565C21.5259 18.6527 22.1368 17.4944 22.381 16.2358C22.6252 14.9772 22.4917 13.6744 21.9974 12.4915C21.503 11.3085 20.6699 10.2982 19.6027 9.58757C18.5356 8.87695 17.2821 8.49779 16 8.49779C14.7179 8.49779 13.4644 8.87695 12.3973 9.58757C11.3302 10.2982 10.497 11.3085 10.0026 12.4915C9.50828 13.6744 9.3748 14.9772 9.61899 16.2358C9.86319 17.4944 10.4741 18.6527 11.375 19.565C9.96147 20.2551 8.72224 21.2559 7.75001 22.4925C6.52881 20.9444 5.76819 19.0838 5.5552 17.1236C5.34221 15.1634 5.68546 13.1828 6.54567 11.4086C7.40587 9.63437 8.74827 8.13822 10.4192 7.09139C12.0901 6.04457 14.022 5.48938 15.9938 5.48938C17.9655 5.48938 19.8974 6.04457 21.5683 7.09139C23.2392 8.13822 24.5816 9.63437 25.4418 11.4086C26.3021 13.1828 26.6453 15.1634 26.4323 17.1236C26.2193 19.0838 25.4587 20.9444 24.2375 22.4925H24.25Z" fill="#A0D2EB"/>
<path d="M15.6475 19.6175C16.9038 18.5615 17.8049 17.1447 18.2287 15.5592C18.6524 13.9736 18.5783 12.2961 18.0163 10.7542C17.4544 9.21221 16.4317 7.8804 15.0872 6.93934C13.7426 5.99828 12.1411 5.49353 10.5 5.49353C8.85877 5.49353 7.2573 5.99828 5.91273 6.93934C4.56816 7.8804 3.54554 9.21221 2.98357 10.7542C2.4216 12.2961 2.34747 13.9736 2.77123 15.5592C3.19499 17.1447 4.09613 18.5615 5.35245 19.6175C3.39068 20.5046 1.6906 21.8822 0.416201 23.6175C0.180821 23.9383 0.0824981 24.3394 0.142861 24.7326C0.203225 25.1259 0.41733 25.479 0.738076 25.7144C1.05882 25.9498 1.45994 26.0481 1.85318 25.9877C2.24642 25.9274 2.59957 25.7133 2.83495 25.3925C3.71713 24.1877 4.8709 23.2078 6.20267 22.5323C7.53443 21.8568 9.00668 21.5048 10.5 21.5048C11.9932 21.5048 13.4655 21.8568 14.7972 22.5323C16.129 23.2078 17.2828 24.1877 18.165 25.3925C18.4003 25.7134 18.7535 25.9277 19.1469 25.9882C19.5403 26.0487 19.9415 25.9504 20.2625 25.715C20.5834 25.4796 20.7976 25.1264 20.8581 24.7331C20.9186 24.3397 20.8203 23.9384 20.5849 23.6175C19.3098 21.8824 17.6094 20.5049 15.6475 19.6175ZM5.49995 13.5C5.49995 12.5111 5.7932 11.5444 6.3426 10.7222C6.89201 9.89992 7.6729 9.25906 8.58653 8.88062C9.50016 8.50218 10.5055 8.40317 11.4754 8.59609C12.4453 8.78902 13.3362 9.26522 14.0355 9.96449C14.7347 10.6637 15.211 11.5547 15.4039 12.5246C15.5968 13.4945 15.4978 14.4998 15.1193 15.4134C14.7409 16.3271 14.1 17.108 13.2778 17.6574C12.4556 18.2068 11.4889 18.5 10.5 18.5C9.17387 18.5 7.9021 17.9732 6.96442 17.0356C6.02674 16.0979 5.49995 14.8261 5.49995 13.5ZM31.2625 25.7088C31.1037 25.8255 30.9234 25.9097 30.7321 25.9567C30.5407 26.0037 30.3419 26.0126 30.1471 25.9827C29.9524 25.9529 29.7654 25.885 29.5968 25.7829C29.4283 25.6807 29.2815 25.5464 29.165 25.3875C28.2806 24.185 27.1264 23.2068 25.7951 22.5316C24.4638 21.8564 22.9927 21.5031 21.5 21.5C21.1021 21.5 20.7206 21.342 20.4393 21.0607C20.158 20.7794 20 20.3978 20 20C20 19.6022 20.158 19.2207 20.4393 18.9394C20.7206 18.6581 21.1021 18.5 21.5 18.5C22.2362 18.4992 22.9631 18.3357 23.6288 18.0214C24.2945 17.7071 24.8827 17.2496 25.3511 16.6817C25.8196 16.1138 26.1569 15.4495 26.3389 14.7361C26.5209 14.0228 26.5431 13.278 26.404 12.5551C26.2649 11.8321 25.9678 11.1489 25.534 10.554C25.1002 9.95917 24.5405 9.46746 23.8947 9.11399C23.2489 8.76053 22.533 8.55404 21.7981 8.50928C21.0633 8.46451 20.3276 8.58257 19.6437 8.85502C19.4605 8.93003 19.2642 8.96804 19.0663 8.96685C18.8683 8.96566 18.6725 8.92529 18.4903 8.84808C18.308 8.77086 18.1428 8.65832 18.0042 8.51695C17.8656 8.37559 17.7564 8.20818 17.6828 8.02439C17.6092 7.84061 17.5727 7.64407 17.5755 7.44612C17.5782 7.24817 17.6201 7.05272 17.6987 6.87104C17.7774 6.68936 17.8912 6.52504 18.0336 6.38756C18.1761 6.25008 18.3443 6.14216 18.5287 6.07002C20.2941 5.3632 22.2535 5.30836 24.0557 5.91533C25.8579 6.5223 27.3849 7.75139 28.363 9.38221C29.341 11.013 29.7062 12.9389 29.393 14.8146C29.0797 16.6902 28.1086 18.393 26.6537 19.6175C28.6155 20.5046 30.3156 21.8822 31.59 23.6175C31.823 23.9386 31.9194 24.3388 31.858 24.7308C31.7966 25.1227 31.5825 25.4743 31.2625 25.7088Z" fill="#E5EAF5"/>
</svg>
