<svg width="32" height="32" viewBox="0 0 32 32" fill="none" xmlns="http://www.w3.org/2000/svg">
<path d="M31.9998 17.0002C31.9998 17.398 31.8418 17.7795 31.5605 18.0608C31.2792 18.3421 30.8976 18.5002 30.4998 18.5002H29.4998V19.5002C29.4998 19.898 29.3418 20.2795 29.0605 20.5608C28.7792 20.8421 28.3976 21.0002 27.9998 21.0002C27.602 21.0002 27.2204 20.8421 26.9391 20.5608C26.6578 20.2795 26.4998 19.898 26.4998 19.5002V18.5002H25.4998C25.102 18.5002 24.7204 18.3421 24.4391 18.0608C24.1578 17.7795 23.9998 17.398 23.9998 17.0002C23.9998 16.6023 24.1578 16.2208 24.4391 15.9395C24.7204 15.6582 25.102 15.5002 25.4998 15.5002H26.4998V14.5002C26.4998 14.1023 26.6578 13.7208 26.9391 13.4395C27.2204 13.1582 27.602 13.0002 27.9998 13.0002C28.3976 13.0002 28.7792 13.1582 29.0605 13.4395C29.3418 13.7208 29.4998 14.1023 29.4998 14.5002V15.5002H30.4998C30.8976 15.5002 31.2792 15.6582 31.5605 15.9395C31.8418 16.2208 31.9998 16.6023 31.9998 17.0002ZM25.1486 24.0352C25.4045 24.3398 25.5289 24.7337 25.4944 25.1301C25.46 25.5265 25.2695 25.893 24.9648 26.1489C24.6601 26.4049 24.2663 26.5293 23.8699 26.4948C23.4735 26.4604 23.107 26.2698 22.851 25.9652C21.1398 23.9277 18.1248 21.5002 13.4998 21.5002C9.88855 21.5002 6.5673 23.0852 4.14855 25.9652C3.89262 26.2698 3.52614 26.4604 3.12973 26.4948C2.73333 26.5293 2.33947 26.4049 2.0348 26.1489C1.73013 25.893 1.53961 25.5265 1.50515 25.1301C1.47069 24.7337 1.59512 24.3398 1.85105 24.0352C3.48071 22.067 5.57141 20.5319 7.9373 19.5664C6.46609 18.4098 5.39204 16.8232 4.86461 15.0277C4.33719 13.2321 4.38262 11.3167 4.9946 9.54816C5.60657 7.7796 6.75464 6.2458 8.27905 5.1602C9.80345 4.0746 11.6284 3.49121 13.4998 3.49121C15.3712 3.49121 17.1962 4.0746 18.7206 5.1602C20.245 6.2458 21.393 7.7796 22.005 9.54816C22.617 11.3167 22.6624 13.2321 22.135 15.0277C21.6076 16.8232 20.5335 18.4098 19.0623 19.5664C21.4284 20.5315 23.5192 22.0667 25.1486 24.0352ZM13.4998 18.5002C14.6865 18.5002 15.8465 18.1483 16.8332 17.489C17.8199 16.8297 18.589 15.8926 19.0431 14.7963C19.4972 13.6999 19.616 12.4935 19.3845 11.3296C19.153 10.1657 18.5816 9.09665 17.7424 8.25753C16.9033 7.41842 15.8342 6.84697 14.6703 6.61546C13.5065 6.38395 12.3001 6.50277 11.2037 6.95689C10.1073 7.41102 9.17027 8.18005 8.51098 9.16675C7.85169 10.1534 7.4998 11.3135 7.4998 12.5002C7.50145 14.091 8.13413 15.6161 9.25899 16.741C10.3838 17.8658 11.909 18.4985 13.4998 18.5002Z" fill="#494D5F"/>
</svg>
