<svg width="32" height="32" viewBox="0 0 32 32" fill="none" xmlns="http://www.w3.org/2000/svg">
<path d="M16 2.5C13.33 2.5 10.7199 3.29176 8.49981 4.77516C6.27974 6.25856 4.54942 8.36697 3.52763 10.8338C2.50585 13.3006 2.2385 16.015 2.7594 18.6337C3.28031 21.2525 4.56606 23.6579 6.45406 25.5459C8.34207 27.434 10.7475 28.7197 13.3663 29.2406C15.985 29.7615 18.6994 29.4942 21.1662 28.4724C23.633 27.4506 25.7414 25.7203 27.2248 23.5002C28.7082 21.2801 29.5 18.67 29.5 16C29.496 12.4208 28.0724 8.98932 25.5416 6.45844C23.0107 3.92756 19.5792 2.50397 16 2.5ZM9.94626 24.5713C10.6426 23.6191 11.5537 22.8447 12.6056 22.3108C13.6574 21.7769 14.8204 21.4987 16 21.4987C17.1796 21.4987 18.3426 21.7769 19.3944 22.3108C20.4463 22.8447 21.3574 23.6191 22.0538 24.5713C20.2845 25.826 18.169 26.5 16 26.5C13.831 26.5 11.7155 25.826 9.94626 24.5713ZM12.5 15C12.5 14.3078 12.7053 13.6311 13.0899 13.0555C13.4744 12.4799 14.0211 12.0313 14.6606 11.7664C15.3002 11.5015 16.0039 11.4322 16.6828 11.5673C17.3618 11.7023 17.9854 12.0356 18.4749 12.5251C18.9644 13.0146 19.2977 13.6383 19.4328 14.3172C19.5678 14.9961 19.4985 15.6999 19.2336 16.3394C18.9687 16.9789 18.5201 17.5256 17.9445 17.9101C17.3689 18.2947 16.6922 18.5 16 18.5C15.0717 18.5 14.1815 18.1313 13.5251 17.4749C12.8688 16.8185 12.5 15.9283 12.5 15ZM24.25 22.4925C23.2778 21.2559 22.0385 20.2551 20.625 19.565C21.5259 18.6527 22.1368 17.4944 22.381 16.2358C22.6252 14.9772 22.4917 13.6744 21.9974 12.4915C21.503 11.3085 20.6699 10.2982 19.6027 9.58757C18.5356 8.87695 17.2821 8.49779 16 8.49779C14.7179 8.49779 13.4644 8.87695 12.3973 9.58757C11.3302 10.2982 10.497 11.3085 10.0026 12.4915C9.50828 13.6744 9.3748 14.9772 9.61899 16.2358C9.86319 17.4944 10.4741 18.6527 11.375 19.565C9.96147 20.2551 8.72224 21.2559 7.75001 22.4925C6.52881 20.9444 5.76819 19.0838 5.5552 17.1236C5.34221 15.1634 5.68546 13.1828 6.54567 11.4086C7.40587 9.63437 8.74827 8.13822 10.4192 7.09139C12.0901 6.04457 14.022 5.48938 15.9938 5.48938C17.9655 5.48938 19.8974 6.04457 21.5683 7.09139C23.2392 8.13822 24.5816 9.63437 25.4418 11.4086C26.3021 13.1828 26.6453 15.1634 26.4323 17.1236C26.2193 19.0838 25.4587 20.9444 24.2375 22.4925H24.25Z" fill="#E5EAF5"/>
</svg>
