<svg width="10" height="10" viewBox="0 0 10 10" fill="none" xmlns="http://www.w3.org/2000/svg">
<path d="M9.02038 8.59384C8.99295 8.64135 8.95349 8.68081 8.90597 8.70824C8.85845 8.73566 8.80455 8.7501 8.74968 8.75009H1.24968C1.19485 8.75003 1.141 8.73555 1.09354 8.7081C1.04608 8.68065 1.00668 8.64119 0.979287 8.5937C0.951897 8.5462 0.937486 8.49233 0.9375 8.43751C0.937514 8.38268 0.951953 8.32882 0.979367 8.28134C1.57429 7.25282 2.49109 6.51532 3.56101 6.16571C3.03178 5.85066 2.6206 5.37059 2.39061 4.79922C2.16063 4.22786 2.12456 3.59681 2.28794 3.00296C2.45132 2.40911 2.80512 1.88532 3.295 1.51201C3.78489 1.1387 4.38377 0.936523 4.99968 0.936523C5.61559 0.936523 6.21447 1.1387 6.70436 1.51201C7.19424 1.88532 7.54804 2.40911 7.71142 3.00296C7.8748 3.59681 7.83873 4.22786 7.60875 4.79922C7.37876 5.37059 6.96758 5.85066 6.43835 6.16571C7.50827 6.51532 8.42507 7.25282 9.01999 8.28134C9.04748 8.32881 9.06199 8.38268 9.06205 8.43753C9.06212 8.49239 9.04775 8.5463 9.02038 8.59384Z" fill="black" fill-opacity="0.5"/>
</svg>
