<svg width="32" height="32" viewBox="0 0 32 32" fill="none" xmlns="http://www.w3.org/2000/svg">
<path d="M15.6475 19.6175C16.9038 18.5615 17.8049 17.1447 18.2287 15.5592C18.6524 13.9736 18.5783 12.2961 18.0163 10.7542C17.4544 9.21221 16.4317 7.8804 15.0872 6.93934C13.7426 5.99828 12.1411 5.49353 10.5 5.49353C8.85877 5.49353 7.2573 5.99828 5.91273 6.93934C4.56816 7.8804 3.54554 9.21221 2.98357 10.7542C2.4216 12.2961 2.34747 13.9736 2.77123 15.5592C3.19499 17.1447 4.09613 18.5615 5.35245 19.6175C3.39068 20.5046 1.6906 21.8822 0.416201 23.6175C0.180821 23.9383 0.0824981 24.3394 0.142861 24.7326C0.203225 25.1259 0.41733 25.479 0.738076 25.7144C1.05882 25.9498 1.45994 26.0481 1.85318 25.9877C2.24642 25.9274 2.59957 25.7133 2.83495 25.3925C3.71713 24.1877 4.8709 23.2078 6.20267 22.5323C7.53443 21.8568 9.00668 21.5048 10.5 21.5048C11.9932 21.5048 13.4655 21.8568 14.7972 22.5323C16.129 23.2078 17.2828 24.1877 18.165 25.3925C18.4003 25.7134 18.7535 25.9277 19.1469 25.9882C19.5403 26.0487 19.9415 25.9504 20.2625 25.715C20.5834 25.4796 20.7976 25.1264 20.8581 24.7331C20.9186 24.3397 20.8203 23.9384 20.5849 23.6175C19.3098 21.8824 17.6094 20.5049 15.6475 19.6175ZM5.49995 13.5C5.49995 12.5111 5.7932 11.5444 6.3426 10.7222C6.89201 9.89992 7.6729 9.25906 8.58653 8.88062C9.50016 8.50218 10.5055 8.40317 11.4754 8.59609C12.4453 8.78902 13.3362 9.26522 14.0355 9.96449C14.7347 10.6637 15.211 11.5547 15.4039 12.5246C15.5968 13.4945 15.4978 14.4998 15.1193 15.4134C14.7409 16.3271 14.1 17.108 13.2778 17.6574C12.4556 18.2068 11.4889 18.5 10.5 18.5C9.17387 18.5 7.9021 17.9732 6.96442 17.0356C6.02674 16.0979 5.49995 14.8261 5.49995 13.5ZM31.2625 25.7088C31.1037 25.8255 30.9234 25.9097 30.7321 25.9567C30.5407 26.0037 30.3419 26.0126 30.1471 25.9827C29.9524 25.9529 29.7654 25.885 29.5968 25.7829C29.4283 25.6807 29.2815 25.5464 29.165 25.3875C28.2806 24.185 27.1264 23.2068 25.7951 22.5316C24.4638 21.8564 22.9927 21.5031 21.5 21.5C21.1021 21.5 20.7206 21.342 20.4393 21.0607C20.158 20.7794 20 20.3978 20 20C20 19.6022 20.158 19.2207 20.4393 18.9394C20.7206 18.6581 21.1021 18.5 21.5 18.5C22.2362 18.4992 22.9631 18.3357 23.6288 18.0214C24.2945 17.7071 24.8827 17.2496 25.3511 16.6817C25.8196 16.1138 26.1569 15.4495 26.3389 14.7361C26.5209 14.0228 26.5431 13.278 26.404 12.5551C26.2649 11.8321 25.9678 11.1489 25.534 10.554C25.1002 9.95917 24.5405 9.46746 23.8947 9.11399C23.2489 8.76053 22.533 8.55404 21.7981 8.50928C21.0633 8.46451 20.3276 8.58257 19.6437 8.85502C19.4605 8.93003 19.2642 8.96804 19.0663 8.96685C18.8683 8.96566 18.6725 8.92529 18.4903 8.84808C18.308 8.77086 18.1428 8.65832 18.0042 8.51695C17.8656 8.37559 17.7564 8.20818 17.6828 8.02439C17.6092 7.84061 17.5727 7.64407 17.5755 7.44612C17.5782 7.24817 17.6201 7.05272 17.6987 6.87104C17.7774 6.68936 17.8912 6.52504 18.0336 6.38756C18.1761 6.25008 18.3443 6.14216 18.5287 6.07002C20.2941 5.3632 22.2535 5.30836 24.0557 5.91533C25.8579 6.5223 27.3849 7.75139 28.363 9.38221C29.341 11.013 29.7062 12.9389 29.393 14.8146C29.0797 16.6902 28.1086 18.393 26.6537 19.6175C28.6155 20.5046 30.3156 21.8822 31.59 23.6175C31.823 23.9386 31.9194 24.3388 31.858 24.7308C31.7966 25.1227 31.5825 25.4743 31.2625 25.7088Z" fill="#A0D2EB"/>
</svg>
