<svg width="25" height="25" viewBox="0 0 25 25" fill="none" xmlns="http://www.w3.org/2000/svg">
<path d="M24.0688 7.1453C23.8349 6.9402 23.545 6.80963 23.2363 6.77031C22.9277 6.73099 22.6143 6.78471 22.3364 6.92459L17.7563 9.2078L13.8501 2.71463C13.7102 2.4823 13.5125 2.2901 13.2764 2.15667C13.0403 2.02324 12.7737 1.95312 12.5024 1.95312C12.2312 1.95312 11.9646 2.02324 11.7285 2.15667C11.4923 2.2901 11.2947 2.4823 11.1548 2.71463L7.24853 9.2078L2.66748 6.92557C2.38984 6.78687 2.07736 6.73345 1.76941 6.77203C1.46146 6.8106 1.17182 6.93946 0.936973 7.14235C0.702125 7.34525 0.532577 7.61311 0.449689 7.91219C0.366801 8.21127 0.374282 8.52819 0.471189 8.82303L4.08447 19.8924C4.13889 20.0591 4.23006 20.2116 4.35124 20.3384C4.47243 20.4652 4.62054 20.5632 4.78465 20.6252C4.94877 20.6871 5.1247 20.7114 5.29947 20.6963C5.47424 20.6812 5.64338 20.6271 5.79443 20.5379C5.81787 20.5242 8.2417 19.1404 12.5005 19.1404C16.7593 19.1404 19.1831 20.5262 19.2017 20.5369C19.3527 20.6273 19.5222 20.6824 19.6975 20.6983C19.8728 20.7142 20.0494 20.6904 20.2143 20.6287C20.3791 20.5669 20.5279 20.4689 20.6497 20.3417C20.7714 20.2146 20.8629 20.0617 20.9175 19.8943L24.5308 8.83084C24.6305 8.53585 24.6398 8.21778 24.5575 7.91745C24.4752 7.61712 24.305 7.34824 24.0688 7.1453ZM19.0952 17.9217C17.7915 17.4217 15.5474 16.7967 12.5005 16.7967C9.45361 16.7967 7.20947 17.4236 5.90576 17.9236L3.26904 9.84647L6.83642 11.6209C7.19096 11.7958 7.59818 11.8316 7.9778 11.7212C8.35741 11.6107 8.68187 11.3621 8.88721 11.0242L12.5005 5.01932L16.1138 11.0252C16.3191 11.363 16.6436 11.6116 17.0233 11.7219C17.403 11.8322 17.8102 11.7962 18.1645 11.6209L21.731 9.84354L19.0952 17.9217Z" fill="#86AEEA"/>
</svg>
